<svg width="2154" height="2021" xmlns="http://www.w3.org/2000/svg" xmlns:xlink="http://www.w3.org/1999/xlink" xml:space="preserve" overflow="hidden"><g transform="translate(-189 -132)"><path d="M191.5 298.003C191.5 207.703 264.703 134.5 355.003 134.5L1009 134.5C1099.3 134.5 1172.5 207.703 1172.5 298.003L1172.5 951.997C1172.5 1042.3 1099.3 1115.5 1009 1115.5L355.003 1115.5C264.703 1115.5 191.5 1042.3 191.5 951.997Z" stroke="#D9D9D9" stroke-width="4.58333" stroke-miterlimit="8" fill="#F2F2F2" fill-rule="evenodd"/><path d="M191.5 1333.84C191.5 1243.63 264.628 1170.5 354.837 1170.5L1009.16 1170.5C1099.37 1170.5 1172.5 1243.63 1172.5 1333.84L1172.5 1987.16C1172.5 2077.37 1099.37 2150.5 1009.16 2150.5L354.837 2150.5C264.628 2150.5 191.5 2077.37 191.5 1987.16Z" stroke="#D9D9D9" stroke-width="4.58333" stroke-miterlimit="8" fill="#F2F2F2" fill-rule="evenodd"/><path d="M1281.5 311.004C1281.5 213.523 1360.52 134.5 1458 134.5L2164 134.5C2261.48 134.5 2340.5 213.523 2340.5 311.004L2340.5 1974C2340.5 2071.48 2261.48 2150.5 2164 2150.5L1458 2150.5C1360.52 2150.5 1281.5 2071.48 1281.5 1974Z" stroke="#D9D9D9" stroke-width="4.58333" stroke-miterlimit="8" fill="#F2F2F2" fill-rule="evenodd"/><path d="M745.5 264.5 1088.33 264.5 1107.5 283.667 1107.5 379.5 745.5 379.5Z" stroke="#172C51" stroke-width="4.58333" stroke-miterlimit="8" fill="#E2F0D9" fill-rule="evenodd"/><path d="M257.5 264.5 600.166 264.5 619.5 283.833 619.5 380.5 257.5 380.5Z" stroke="#172C51" stroke-width="4.58333" stroke-miterlimit="8" fill="#E2F0D9" fill-rule="evenodd"/><text font-family="DengXian,DengXian_MSFontService,sans-serif" font-weight="400" font-size="46" transform="matrix(1 0 0 1 319.483 337)">Sequence A</text><text font-family="DengXian,DengXian_MSFontService,sans-serif" font-weight="400" font-size="46" transform="matrix(1 0 0 1 811.487 337)">Sequence B</text><text font-family="DengXian,DengXian_MSFontService,sans-serif" font-weight="700" font-size="55" transform="matrix(1 0 0 1 333.454 227)">Protein Structure Prediction</text><text font-family="DengXian,DengXian_MSFontService,sans-serif" font-weight="700" font-size="55" transform="matrix(1 0 0 1 506.188 1255)">Preprocessing</text><text font-family="DengXian,DengXian_MSFontService,sans-serif" font-weight="700" font-size="55" transform="matrix(1 0 0 1 1494.27 227)">Deep Learning Prediction</text><path d="M318.5 525.334C318.5 501.678 337.678 482.5 361.334 482.5L1001.67 482.5C1025.32 482.5 1044.5 501.678 1044.5 525.334L1044.5 696.666C1044.5 720.322 1025.32 739.5 1001.67 739.5L361.334 739.5C337.678 739.5 318.5 720.322 318.5 696.666Z" stroke="#172C51" stroke-width="4.58333" stroke-miterlimit="8" fill="#DAE3F3" fill-rule="evenodd"/><text font-family="DengXian,DengXian_MSFontService,sans-serif" font-weight="700" font-size="46" transform="matrix(1 0 0 1 472.959 598)">AlphaFold Multimer </text><text font-family="DengXian,DengXian_MSFontService,sans-serif" font-weight="700" font-size="46" transform="matrix(1 0 0 1 574.64 653)">Prediction</text><path d="M3.43724-0.0419017 4.40081 79.0006-2.47368 79.0845-3.43724 0.0419017ZM14.6567 74.292 1.24291 101.958-12.8413 74.6272Z" transform="matrix(-1 0 0 1 438.743 380.5)"/><path d="M929.937 379.485 930.28 459.279 923.405 459.309 923.062 379.515ZM940.573 454.652 926.941 482.211 913.073 454.77Z"/><path d="M468.5 855.5 875.333 855.5 894.5 874.667 894.5 970.5 468.5 970.5Z" stroke="#172C51" stroke-width="4.58333" stroke-miterlimit="8" fill="#E2F0D9" fill-rule="evenodd"/><text font-family="DengXian,DengXian_MSFontService,sans-serif" font-weight="400" font-size="46" transform="matrix(1 0 0 1 511.112 905)">Protein Structure </text><text font-family="DengXian,DengXian_MSFontService,sans-serif" font-weight="400" font-size="46" transform="matrix(1 0 0 1 599.914 960)">PDB file</text><path d="M684.938 746.486 685.286 832.581 678.412 832.608 678.063 746.514ZM695.58 827.955 681.942 855.511 668.081 828.067Z"/><path d="M516.5 1347.33C516.5 1336.38 525.38 1327.5 536.334 1327.5L1024.67 1327.5C1035.62 1327.5 1044.5 1336.38 1044.5 1347.33L1044.5 1426.67C1044.5 1437.62 1035.62 1446.5 1024.67 1446.5L536.334 1446.5C525.38 1446.5 516.5 1437.62 516.5 1426.67Z" stroke="#172C51" stroke-width="4.58333" stroke-miterlimit="8" fill="#DAE3F3" fill-rule="evenodd"/><text font-family="DengXian,DengXian_MSFontService,sans-serif" font-weight="700" font-size="46" transform="matrix(1 0 0 1 564.683 1402)">Interface Calculation</text><path d="M288.5 1679.5C288.5 1668.45 297.454 1659.5 308.5 1659.5L1054.5 1659.5C1065.55 1659.5 1074.5 1668.45 1074.5 1679.5L1074.5 1759.5C1074.5 1770.55 1065.55 1779.5 1054.5 1779.5L308.5 1779.5C297.454 1779.5 288.5 1770.55 288.5 1759.5Z" stroke="#172C51" stroke-width="4.58333" stroke-miterlimit="8" fill="#DAE3F3" fill-rule="evenodd"/><text font-family="DengXian,DengXian_MSFontService,sans-serif" font-weight="700" font-size="46" transform="matrix(1 0 0 1 540.121 1734)">Tensorization</text><path d="M567.5 1501.5 979.667 1501.5 993.5 1515.33 993.5 1584.5 567.5 1584.5Z" stroke="#172C51" stroke-width="4.58333" stroke-miterlimit="8" fill="#E2F0D9" fill-rule="evenodd"/><text font-family="DengXian,DengXian_MSFontService,sans-serif" font-weight="400" font-size="46" transform="matrix(1 0 0 1 619.355 1562)">Interface Center</text><path d="M3.4375-2.26385e-05 3.43771 31.8823-3.43729 31.8823-3.4375 2.26385e-05ZM13.7502 27.2989 0.000360892 54.799-13.7498 27.2991Z" transform="matrix(-1 0 0 1 780.501 1446.5)"/><path d="M784.937 1588.5 784.938 1636.65 778.063 1636.65 778.062 1588.5ZM795.25 1632.06 781.5 1659.56 767.75 1632.06Z"/><path d="M0 0 0.441732 83.3113" stroke="#000000" stroke-width="6.875" stroke-miterlimit="8" fill="none" fill-rule="evenodd" transform="matrix(-1 0 0 1 681.942 970.5)"/><path d="M0 0 276.866 0.000360892" stroke="#000000" stroke-width="6.875" stroke-miterlimit="8" fill="none" fill-rule="evenodd" transform="matrix(-1 0 0 1 681.366 1054.5)"/><path d="M403.937 1054.5 403.938 1637.3 397.063 1637.3 397.062 1054.5ZM414.25 1632.72 400.5 1660.22 386.75 1632.72Z"/><path d="M400.5 1383.06 492.739 1383.06 492.739 1389.94 400.5 1389.94ZM488.156 1372.75 515.656 1386.5 488.156 1400.25Z"/><path d="M468.5 2037.5 880.667 2037.5 894.5 2051.33 894.5 2120.5 468.5 2120.5Z" stroke="#172C51" stroke-width="4.58333" stroke-miterlimit="8" fill="#E2F0D9" fill-rule="evenodd"/><text font-family="DengXian,DengXian_MSFontService,sans-serif" font-weight="400" font-size="46" transform="matrix(1 0 0 1 601.382 2097)">Tensors</text><path d="M270.5 1859.33C270.5 1848.38 279.38 1839.5 290.334 1839.5L514.666 1839.5C525.62 1839.5 534.5 1848.38 534.5 1859.33L534.5 1938.67C534.5 1949.62 525.62 1958.5 514.666 1958.5L290.334 1958.5C279.38 1958.5 270.5 1949.62 270.5 1938.67Z" stroke="#172C51" stroke-width="4.58333" stroke-miterlimit="8" fill="#DAE3F3" fill-rule="evenodd"/><text font-family="DengXian,DengXian_MSFontService,sans-serif" font-weight="400" font-size="46" transform="matrix(1 0 0 1 312.853 1886)">One</text><text font-family="DengXian,DengXian_MSFontService,sans-serif" font-weight="400" font-size="46" transform="matrix(1 0 0 1 396.499 1886)">-</text><text font-family="DengXian,DengXian_MSFontService,sans-serif" font-weight="400" font-size="46" transform="matrix(1 0 0 1 419.416 1886)">Hot </text><text font-family="DengXian,DengXian_MSFontService,sans-serif" font-weight="400" font-size="46" transform="matrix(1 0 0 1 310.562 1941)">Encoding</text><path d="M828.5 1858.5C828.5 1847.45 837.454 1838.5 848.5 1838.5L1072.5 1838.5C1083.55 1838.5 1092.5 1847.45 1092.5 1858.5L1092.5 1938.5C1092.5 1949.55 1083.55 1958.5 1072.5 1958.5L848.5 1958.5C837.454 1958.5 828.5 1949.55 828.5 1938.5Z" stroke="#172C51" stroke-width="4.58333" stroke-miterlimit="8" fill="#DAE3F3" fill-rule="evenodd"/><text font-family="DengXian,DengXian_MSFontService,sans-serif" font-weight="400" font-size="46" transform="matrix(1 0 0 1 876.037 1886)">Distance </text><text font-family="DengXian,DengXian_MSFontService,sans-serif" font-weight="400" font-size="46" transform="matrix(1 0 0 1 868.016 1941)">Encoding</text><path d="M549.5 1858.5C549.5 1847.45 558.455 1838.5 569.501 1838.5L793.5 1838.5C804.546 1838.5 813.5 1847.45 813.5 1858.5L813.5 1938.5C813.5 1949.55 804.546 1958.5 793.5 1958.5L569.501 1958.5C558.455 1958.5 549.5 1949.55 549.5 1938.5Z" stroke="#172C51" stroke-width="4.58333" stroke-miterlimit="8" fill="#DAE3F3" fill-rule="evenodd"/><text font-family="DengXian,DengXian_MSFontService,sans-serif" font-weight="400" font-size="46" transform="matrix(1 0 0 1 605.033 1886)">Volume </text><text font-family="DengXian,DengXian_MSFontService,sans-serif" font-weight="400" font-size="46" transform="matrix(1 0 0 1 589.289 1941)">Encoding</text><path d="M3.43612-0.0973301 4.48128 36.8008-2.39096 36.9955-3.43612 0.0973301ZM14.6599 31.9273 1.69403 59.8056-12.8291 32.706Z" transform="matrix(-1 0 0 1 681.194 1779.5)"/><path d="M3.43612-0.0973301 4.48128 36.8008-2.39096 36.9955-3.43612 0.0973301ZM14.6599 31.9273 1.69403 59.8056-12.8291 32.706Z" transform="matrix(-1 0 0 1 964.194 1780.5)"/><path d="M3.43612-0.0973301 4.48128 36.8008-2.39096 36.9955-3.43612 0.0973301ZM14.6599 31.9273 1.69403 59.8056-12.8291 32.706Z" transform="matrix(-1 0 0 1 402.194 1780.5)"/><path d="M684.938 1958.5 684.938 2014.06 678.063 2014.06 678.063 1958.5ZM695.25 2009.48 681.501 2036.98 667.75 2009.48Z"/><path d="M963.848 1958.5 963.848 2001.35 681.5 2001.35 684.938 1997.91 684.938 2014.41 678.063 2014.41 678.063 1994.48 960.41 1994.48 956.973 1997.91 956.973 1958.5ZM695.25 2009.83 681.5 2037.33 667.75 2009.83Z"/><path d="M0-3.4375 42.6778-3.4375 42.6778 278.544 39.2403 275.107 55.5637 275.107 55.5637 281.982 35.8028 281.982 35.8028 0 39.2403 3.4375 0 3.4375ZM50.9804 264.794 78.4804 278.544 50.9804 292.294Z" transform="matrix(1.83697e-16 1 1 -1.83697e-16 402.5 1958.5)"/><path d="M1559.5 277.5 1970.5 277.5 1984.5 291.5 1984.5 361.5 1559.5 361.5Z" stroke="#172C51" stroke-width="4.58333" stroke-miterlimit="8" fill="#E2F0D9" fill-rule="evenodd"/><text font-family="DengXian,DengXian_MSFontService,sans-serif" font-weight="400" font-size="46" transform="matrix(1 0 0 1 1707.33 338)">Inputs</text><path d="M0-3.4375 335.868-3.4375 335.868 1759.6 332.43 1756.16 641.944 1756.16 641.944 1763.03 328.993 1763.03 328.993 0 332.43 3.4375 0 3.4375ZM637.361 1745.85 664.861 1759.6 637.361 1773.35Z" transform="matrix(1 0 0 -1 894.5 2079.1)"/><path d="M1378.5 440.334C1378.5 429.38 1387.38 420.5 1398.33 420.5L2144.67 420.5C2155.62 420.5 2164.5 429.38 2164.5 440.334L2164.5 519.666C2164.5 530.62 2155.62 539.5 2144.67 539.5L1398.33 539.5C1387.38 539.5 1378.5 530.62 1378.5 519.666Z" stroke="#172C51" stroke-width="4.58333" stroke-miterlimit="8" fill="#DAE3F3" fill-rule="evenodd"/><text font-family="DengXian,DengXian_MSFontService,sans-serif" font-weight="700" font-size="46" transform="matrix(1 0 0 1 1565.42 495)">Data Augmentation </text><path d="M1379.5 619.334C1379.5 608.38 1388.38 599.5 1399.33 599.5L2145.67 599.5C2156.62 599.5 2165.5 608.38 2165.5 619.334L2165.5 698.666C2165.5 709.62 2156.62 718.5 2145.67 718.5L1399.33 718.5C1388.38 718.5 1379.5 709.62 1379.5 698.666Z" stroke="#172C51" stroke-width="4.58333" stroke-miterlimit="8" fill="#FFF2CC" fill-rule="evenodd"/><text font-family="DengXian,DengXian_MSFontService,sans-serif" font-weight="700" font-size="46" transform="matrix(1 0 0 1 1646.6 674)">Conv Layers</text><path d="M1380.5 902.002C1380.5 835.451 1434.45 781.5 1501 781.5L2045 781.5C2111.55 781.5 2165.5 835.451 2165.5 902.002L2165.5 1384C2165.5 1450.55 2111.55 1504.5 2045 1504.5L1501 1504.5C1434.45 1504.5 1380.5 1450.55 1380.5 1384Z" stroke="#172C51" stroke-width="4.58333" stroke-miterlimit="8" fill="#FFF2CC" fill-rule="evenodd"/><path d="M1378.5 1597.5C1378.5 1586.45 1387.45 1577.5 1398.5 1577.5L2144.5 1577.5C2155.55 1577.5 2164.5 1586.45 2164.5 1597.5L2164.5 1677.5C2164.5 1688.55 2155.55 1697.5 2144.5 1697.5L1398.5 1697.5C1387.45 1697.5 1378.5 1688.55 1378.5 1677.5Z" stroke="#172C51" stroke-width="4.58333" stroke-miterlimit="8" fill="#FFF2CC" fill-rule="evenodd"/><text font-family="DengXian,DengXian_MSFontService,sans-serif" font-weight="700" font-size="46" transform="matrix(1 0 0 1 1635.03 1653)">Dense Layers</text><path d="M1558.5 1763.5 1970.5 1763.5 1984.5 1777.5 1984.5 1847.5 1558.5 1847.5Z" stroke="#172C51" stroke-width="4.58333" stroke-miterlimit="8" fill="#E2F0D9" fill-rule="evenodd"/><text font-family="DengXian,DengXian_MSFontService,sans-serif" font-weight="400" font-size="46" transform="matrix(1 0 0 1 1659.34 1824)">Predictions</text><path d="M1338.5 1942.5 1750.5 1942.5 1764.5 1956.5 1764.5 2026.5 1338.5 2026.5Z" stroke="#172C51" stroke-width="4.58333" stroke-miterlimit="8" fill="#E2F0D9" fill-rule="evenodd"/><text font-family="DengXian,DengXian_MSFontService,sans-serif" font-weight="400" font-size="46" transform="matrix(1 0 0 1 1410.33 2003)">PPI</text><text font-family="DengXian,DengXian_MSFontService,sans-serif" font-weight="400" font-size="46" transform="matrix(1 0 0 1 1484.81 2003)">/ Non</text><text font-family="DengXian,DengXian_MSFontService,sans-serif" font-weight="400" font-size="46" transform="matrix(1 0 0 1 1599.39 2003)">-</text><text font-family="DengXian,DengXian_MSFontService,sans-serif" font-weight="400" font-size="46" transform="matrix(1 0 0 1 1622.31 2003)">PPI</text><path d="M1794.5 1942.5 2206.5 1942.5 2220.5 1956.5 2220.5 2026.5 1794.5 2026.5Z" stroke="#172C51" stroke-width="4.58333" stroke-miterlimit="8" fill="#E2F0D9" fill-rule="evenodd"/><text font-family="DengXian,DengXian_MSFontService,sans-serif" font-weight="400" font-size="46" transform="matrix(1 0 0 1 1892.15 2003)">Confidence</text><text font-family="DengXian,DengXian_MSFontService,sans-serif" font-weight="700" font-size="46" transform="matrix(1 0 0 1 1651.97 850)">Backbones</text><path d="M1417.5 965.334C1417.5 936.155 1441.15 912.5 1470.33 912.5L1681.67 912.5C1710.85 912.5 1734.5 936.155 1734.5 965.334L1734.5 1407.67C1734.5 1436.85 1710.85 1460.5 1681.67 1460.5L1470.33 1460.5C1441.15 1460.5 1417.5 1436.85 1417.5 1407.67Z" stroke="#172C51" stroke-width="3.4375" stroke-miterlimit="8" stroke-dasharray="13.75 10.3125" fill="none" fill-rule="evenodd"/><path d="M1810.5 965.334C1810.5 936.155 1834.15 912.5 1863.33 912.5L2074.67 912.5C2103.85 912.5 2127.5 936.155 2127.5 965.334L2127.5 1407.67C2127.5 1436.85 2103.85 1460.5 2074.67 1460.5L1863.33 1460.5C1834.15 1460.5 1810.5 1436.85 1810.5 1407.67Z" stroke="#172C51" stroke-width="3.4375" stroke-miterlimit="8" stroke-dasharray="13.75 10.3125" fill="none" fill-rule="evenodd"/><text font-family="DengXian,DengXian_MSFontService,sans-serif" font-weight="400" font-size="32" transform="matrix(1 0 0 1 1479.15 959)">ResNet Blocks</text><text font-family="DengXian,DengXian_MSFontService,sans-serif" font-weight="400" font-size="32" transform="matrix(1 0 0 1 1851.01 959)">DenseNet Blocks</text><path d="M1565.15 985 1565.15 1423.39 1562.85 1423.39 1562.85 985ZM1577.75 1418.8 1564 1446.3 1550.25 1418.8Z"/><rect x="1540.5" y="1029" width="50.5" height="49.4999" fill="#4472C4"/><path d="M1591 1029 1607.5 1012.5 1607.5 1062 1591 1078.5Z" fill="#375C9E" fill-rule="evenodd"/><path d="M1540.5 1029 1557 1012.5 1607.5 1012.5 1591 1029Z" fill="#698ED0" fill-rule="evenodd"/><path d="M1540.5 1029 1557 1012.5 1607.5 1012.5 1607.5 1062 1591 1078.5 1540.5 1078.5ZM1540.5 1029 1591 1029 1607.5 1012.5M1591 1029 1591 1078.5" stroke="#172C51" stroke-width="4.58333" stroke-miterlimit="8" fill="none" fill-rule="evenodd"/><rect x="1540.5" y="1121" width="49.5" height="50.5" fill="#4472C4"/><path d="M1590 1121 1606.5 1104.5 1606.5 1155 1590 1171.5Z" fill="#375C9E" fill-rule="evenodd"/><path d="M1540.5 1121 1557 1104.5 1606.5 1104.5 1590 1121Z" fill="#698ED0" fill-rule="evenodd"/><path d="M1540.5 1121 1557 1104.5 1606.5 1104.5 1606.5 1155 1590 1171.5 1540.5 1171.5ZM1540.5 1121 1590 1121 1606.5 1104.5M1590 1121 1590 1171.5" stroke="#172C51" stroke-width="4.58333" stroke-miterlimit="8" fill="none" fill-rule="evenodd"/><rect x="1540.5" y="1207" width="49.5" height="50.5" fill="#4472C4"/><path d="M1590 1207 1606.5 1190.5 1606.5 1241 1590 1257.5Z" fill="#375C9E" fill-rule="evenodd"/><path d="M1540.5 1207 1557 1190.5 1606.5 1190.5 1590 1207Z" fill="#698ED0" fill-rule="evenodd"/><path d="M1540.5 1207 1557 1190.5 1606.5 1190.5 1606.5 1241 1590 1257.5 1540.5 1257.5ZM1540.5 1207 1590 1207 1606.5 1190.5M1590 1207 1590 1257.5" stroke="#172C51" stroke-width="4.58333" stroke-miterlimit="8" fill="none" fill-rule="evenodd"/><rect x="1540.5" y="1303" width="49.5" height="49.5" fill="#4472C4"/><path d="M1590 1303 1606.5 1286.5 1606.5 1336 1590 1352.5Z" fill="#375C9E" fill-rule="evenodd"/><path d="M1540.5 1303 1557 1286.5 1606.5 1286.5 1590 1303Z" fill="#698ED0" fill-rule="evenodd"/><path d="M1540.5 1303 1557 1286.5 1606.5 1286.5 1606.5 1336 1590 1352.5 1540.5 1352.5ZM1540.5 1303 1590 1303 1606.5 1286.5M1590 1303 1590 1352.5" stroke="#172C51" stroke-width="4.58333" stroke-miterlimit="8" fill="none" fill-rule="evenodd"/><path d="M1565.75 992.136 1568.46 994.49 1568.15 994.3 1571.92 995.907 1571.71 995.84 1576.4 996.834 1576.27 996.814 1581.76 997.33 1581.69 997.325 1587.83 997.497 1587.79 997.496 1594.46 997.458 1594.45 997.459 1601.5 997.345 1608.81 997.291 1616.26 997.431 1623.7 997.902 1631.01 998.843 1638.04 1000.39 1644.68 1002.7 1650.76 1005.91 1656.15 1010.17 1660.65 1015.59 1664.51 1022.09 1668.1 1029.51 1671.43 1037.77 1674.52 1046.8 1677.35 1056.5 1679.93 1066.77 1682.25 1077.53 1684.31 1088.68 1687.63 1111.78 1689.88 1135.33 1691.01 1158.57 1691.15 1169.86 1691 1180.79 1690.52 1191.82 1689.69 1203.39 1688.53 1215.4 1687.06 1227.73 1683.24 1252.86 1678.38 1277.89 1675.6 1290.08 1672.61 1301.91 1669.43 1313.25 1666.08 1323.99 1662.56 1334.03 1658.91 1343.24 1655.13 1351.52 1651.23 1358.76 1647.14 1365.03 1642.79 1370.51 1638.19 1375.24 1633.37 1379.29 1628.33 1382.69 1623.12 1385.5 1617.74 1387.77 1612.21 1389.56 1606.56 1390.91 1600.79 1391.9 1589.04 1392.94 1577.06 1393.14 1567.13 1392.95 1567.18 1390.66 1577.08 1390.85 1577.04 1390.85 1588.97 1390.65 1588.88 1390.65 1600.54 1389.62 1600.45 1389.63 1606.14 1388.66 1606.06 1388.68 1611.63 1387.34 1611.55 1387.37 1616.98 1385.61 1616.89 1385.64 1622.18 1383.41 1622.08 1383.46 1627.2 1380.7 1627.1 1380.76 1632.03 1377.42 1631.94 1377.49 1636.67 1373.53 1636.59 1373.61 1641.1 1368.95 1641.03 1369.04 1645.31 1363.65 1645.25 1363.73 1649.28 1357.55 1649.23 1357.63 1653.09 1350.47 1653.06 1350.54 1656.81 1342.32 1656.79 1342.37 1660.42 1333.21 1660.41 1333.25 1663.91 1323.25 1663.89 1323.29 1667.24 1312.58 1667.23 1312.61 1670.4 1301.3 1670.39 1301.33 1673.37 1289.53 1673.37 1289.56 1676.14 1277.39 1676.13 1277.43 1680.99 1252.44 1680.98 1252.49 1684.79 1227.4 1684.78 1227.44 1686.25 1215.14 1686.25 1215.17 1687.41 1203.19 1687.41 1203.22 1688.23 1191.67 1688.23 1191.7 1688.71 1180.71 1688.7 1180.74 1688.85 1169.85 1688.85 1169.88 1688.72 1158.62 1688.72 1158.67 1687.59 1135.47 1687.59 1135.52 1685.35 1112.02 1685.36 1112.08 1682.04 1089.03 1682.05 1089.08 1680 1077.96 1680 1077.99 1677.69 1067.27 1677.7 1067.31 1675.13 1057.07 1675.14 1057.12 1672.32 1047.47 1672.34 1047.52 1669.27 1038.54 1669.29 1038.6 1665.98 1030.4 1666.02 1030.47 1662.47 1023.13 1662.51 1023.22 1658.73 1016.84 1658.83 1016.99 1654.46 1011.73 1654.63 1011.9 1649.42 1007.78 1649.6 1007.89 1643.68 1004.77 1643.84 1004.84 1637.35 1002.58 1637.48 1002.62 1630.56 1001.09 1630.66 1001.11 1623.44 1000.18 1623.52 1000.19 1616.14 999.72 1616.19 999.722 1608.78 999.583 1608.81 999.583 1601.52 999.637 1601.53 999.637 1594.48 999.75 1587.79 999.788 1581.59 999.615 1575.99 999.089 1571.12 998.059 1567.09 996.337 1564.25 993.864ZM1584.64 1404.57 1564.99 1391.77 1585.11 1379.71C1585.65 1379.38 1586.36 1379.56 1586.68 1380.1 1587.01 1380.65 1586.83 1381.35 1586.29 1381.68L1567.74 1392.79 1567.78 1390.85 1585.9 1402.65C1586.43 1402.99 1586.58 1403.7 1586.23 1404.23 1585.88 1404.76 1585.17 1404.91 1584.64 1404.57Z" fill="#172C51"/><path d="M1963.15 984 1963.15 1422.39 1960.85 1422.39 1960.85 984ZM1975.75 1417.8 1962 1445.3 1948.25 1417.8Z"/><rect x="1938.5" y="1028" width="49.4998" height="50.4998" fill="#4472C4"/><path d="M1988 1028 2004.5 1011.5 2004.5 1062 1988 1078.5Z" fill="#375C9E" fill-rule="evenodd"/><path d="M1938.5 1028 1955 1011.5 2004.5 1011.5 1988 1028Z" fill="#698ED0" fill-rule="evenodd"/><path d="M1938.5 1028 1955 1011.5 2004.5 1011.5 2004.5 1062 1988 1078.5 1938.5 1078.5ZM1938.5 1028 1988 1028 2004.5 1011.5M1988 1028 1988 1078.5" stroke="#172C51" stroke-width="4.58333" stroke-miterlimit="8" fill="none" fill-rule="evenodd"/><rect x="1937.5" y="1121" width="49.5" height="49.5" fill="#4472C4"/><path d="M1987 1121 2003.5 1104.5 2003.5 1154 1987 1170.5Z" fill="#375C9E" fill-rule="evenodd"/><path d="M1937.5 1121 1954 1104.5 2003.5 1104.5 1987 1121Z" fill="#698ED0" fill-rule="evenodd"/><path d="M1937.5 1121 1954 1104.5 2003.5 1104.5 2003.5 1154 1987 1170.5 1937.5 1170.5ZM1937.5 1121 1987 1121 2003.5 1104.5M1987 1121 1987 1170.5" stroke="#172C51" stroke-width="4.58333" stroke-miterlimit="8" fill="none" fill-rule="evenodd"/><rect x="1937.5" y="1207" width="49.5" height="49.5" fill="#4472C4"/><path d="M1987 1207 2003.5 1190.5 2003.5 1240 1987 1256.5Z" fill="#375C9E" fill-rule="evenodd"/><path d="M1937.5 1207 1954 1190.5 2003.5 1190.5 1987 1207Z" fill="#698ED0" fill-rule="evenodd"/><path d="M1937.5 1207 1954 1190.5 2003.5 1190.5 2003.5 1240 1987 1256.5 1937.5 1256.5ZM1937.5 1207 1987 1207 2003.5 1190.5M1987 1207 1987 1256.5" stroke="#172C51" stroke-width="4.58333" stroke-miterlimit="8" fill="none" fill-rule="evenodd"/><rect x="1937.5" y="1303" width="49.5" height="49.5" fill="#4472C4"/><path d="M1987 1303 2003.5 1286.5 2003.5 1336 1987 1352.5Z" fill="#375C9E" fill-rule="evenodd"/><path d="M1937.5 1303 1954 1286.5 2003.5 1286.5 1987 1303Z" fill="#698ED0" fill-rule="evenodd"/><path d="M1937.5 1303 1954 1286.5 2003.5 1286.5 2003.5 1336 1987 1352.5 1937.5 1352.5ZM1937.5 1303 1987 1303 2003.5 1286.5M1987 1303 1987 1352.5" stroke="#172C51" stroke-width="4.58333" stroke-miterlimit="8" fill="none" fill-rule="evenodd"/><path d="M1962.23 991.877 1966.56 992.759 1966.44 992.741 1971.61 993.235 1971.54 993.23 1977.42 993.435 1977.38 993.434 1983.85 993.447 1983.84 993.447 1990.78 993.365 1998.11 993.287 2013.36 993.533 2021.09 994.055 2028.71 994.977 2036.11 996.399 2043.19 998.425 2049.81 1001.16 2055.86 1004.72 2061.21 1009.2 2065.7 1014.68 2069.5 1021.18 2072.9 1028.61 2075.92 1036.91 2078.58 1045.97 2080.91 1055.7 2082.92 1066.02 2084.62 1076.82 2086.03 1088.03 2088.02 1111.21 2089 1134.83 2089.08 1158.13 2088.81 1169.42 2088.36 1180.35 2087.66 1191.36 2086.68 1202.92 2085.4 1214.91 2083.86 1227.21 2080.01 1252.27 2075.22 1277.22 2072.5 1289.38 2069.58 1301.17 2066.47 1312.47 2063.18 1323.18 2059.73 1333.18 2056.13 1342.37 2052.37 1350.63 2048.47 1357.85 2044.37 1364.1 2040.01 1369.57 2035.4 1374.29 2030.56 1378.32 2025.51 1381.72 2020.28 1384.52 2014.89 1386.79 2009.34 1388.57 2003.68 1389.92 1997.89 1390.9 1986.11 1391.94 1974.09 1392.14 1964.13 1391.95 1964.18 1389.66 1974.12 1389.85 1974.08 1389.85 1986.04 1389.65 1985.95 1389.66 1997.64 1388.62 1997.55 1388.63 2003.26 1387.67 2003.18 1387.68 2008.77 1386.35 2008.68 1386.37 2014.14 1384.62 2014.04 1384.66 2019.35 1382.43 2019.25 1382.48 2024.38 1379.73 2024.28 1379.79 2029.23 1376.46 2029.14 1376.53 2033.89 1372.57 2033.8 1372.65 2038.33 1368.01 2038.25 1368.09 2042.55 1362.71 2042.49 1362.8 2046.53 1356.63 2046.48 1356.72 2050.33 1349.58 2050.3 1349.65 2054.03 1341.45 2054 1341.5 2057.59 1332.37 2057.57 1332.41 2061.01 1322.45 2061 1322.49 2064.27 1311.81 2064.27 1311.84 2067.36 1300.57 2067.36 1300.6 2070.27 1288.84 2070.26 1288.87 2072.98 1276.74 2072.97 1276.77 2077.76 1251.86 2077.75 1251.9 2081.59 1226.87 2081.59 1226.9 2083.13 1214.63 2083.13 1214.65 2084.4 1202.69 2084.39 1202.72 2085.38 1191.18 2085.38 1191.21 2086.07 1180.21 2086.07 1180.24 2086.52 1169.34 2086.52 1169.36 2086.78 1158.09 2086.78 1158.12 2086.71 1134.86 2086.71 1134.91 2085.73 1111.33 2085.73 1111.38 2083.75 1088.24 2083.75 1088.29 2082.35 1077.13 2082.36 1077.16 2080.66 1066.4 2080.67 1066.44 2078.67 1056.17 2078.68 1056.21 2076.36 1046.53 2076.38 1046.59 2073.73 1037.59 2073.75 1037.66 2070.76 1029.44 2070.79 1029.52 2067.44 1022.18 2067.49 1022.29 2063.77 1015.91 2063.87 1016.06 2059.51 1010.73 2059.66 1010.89 2054.47 1006.54 2054.62 1006.65 2048.72 1003.18 2048.86 1003.25 2042.37 1000.57 2042.49 1000.61 2035.53 998.616 2035.63 998.639 2028.31 997.235 2028.39 997.247 2020.84 996.334 2020.9 996.34 2013.24 995.821 2013.29 995.824 1998.08 995.578 1998.12 995.579 1990.81 995.657 1983.86 995.738 1977.36 995.726 1971.43 995.519 1966.17 995.016 1961.77 994.123ZM1981.65 1403.57 1961.99 1390.77 1982.11 1378.71C1982.65 1378.38 1983.35 1378.56 1983.68 1379.1 1984.01 1379.65 1983.83 1380.35 1983.29 1380.68L1964.74 1391.79 1964.78 1389.85 1982.9 1401.64C1983.43 1401.99 1983.58 1402.7 1983.23 1403.23 1982.89 1403.76 1982.18 1403.91 1981.65 1403.57Z" fill="#172C51"/><path d="M1962.16 993.866 1966.49 994.477 1966.41 994.468 1971.58 994.811 1971.53 994.808 1977.41 994.95 1977.38 994.95 1983.85 994.959 1983.84 994.959 1990.79 994.902 1998.11 994.848 2013.36 995.018 2028.64 996.015 2036.03 997 2043.08 998.399 2049.68 1000.29 2055.71 1002.75 2061.06 1005.85 2065.57 1009.68 2069.4 1014.22 2072.82 1019.42 2075.86 1025.21 2078.55 1031.53 2080.89 1038.31 2082.91 1045.51 2086.02 1060.8 2088.02 1076.92 2089 1093.34 2089.08 1109.53 2088.36 1124.95 2087.66 1132.62 2086.67 1140.66 2083.85 1157.52 2079.99 1174.94 2075.19 1192.27 2069.55 1208.9 2066.43 1216.76 2063.13 1224.21 2059.67 1231.17 2056.05 1237.56 2052.28 1243.32 2048.36 1248.35 2044.24 1252.71 2039.86 1256.51 2035.24 1259.79 2030.4 1262.59 2025.36 1264.94 2020.13 1266.88 2009.26 1269.67 1997.86 1271.28 1986.1 1272 1974.09 1272.14 1964.14 1272.01 1964.17 1269.72 1974.11 1269.85 1974.08 1269.85 1986.04 1269.71 1985.98 1269.72 1997.68 1269 1997.59 1269.01 2008.88 1267.41 2008.75 1267.44 2019.5 1264.68 2019.39 1264.72 2024.52 1262.81 2024.44 1262.84 2029.39 1260.54 2029.3 1260.58 2034.05 1257.84 2033.96 1257.89 2038.49 1254.67 2038.4 1254.74 2042.69 1251.01 2042.61 1251.09 2046.66 1246.82 2046.59 1246.9 2050.44 1241.95 2050.38 1242.02 2054.11 1236.34 2054.07 1236.4 2057.66 1230.07 2057.63 1230.12 2061.07 1223.21 2061.05 1223.26 2064.32 1215.86 2064.3 1215.9 2067.4 1208.08 2067.38 1208.13 2073.01 1191.57 2072.99 1191.63 2077.78 1174.35 2077.76 1174.41 2081.61 1157.06 2081.6 1157.11 2084.4 1140.31 2084.4 1140.36 2085.38 1132.36 2085.38 1132.4 2086.07 1124.77 2086.07 1124.82 2086.78 1109.45 2086.78 1109.51 2086.71 1093.38 2086.71 1093.44 2085.73 1077.09 2085.74 1077.17 2083.75 1061.12 2083.77 1061.21 2080.67 1046 2080.69 1046.08 2078.69 1038.96 2078.71 1039.03 2076.39 1032.31 2076.42 1032.39 2073.77 1026.15 2073.81 1026.23 2070.82 1020.53 2070.88 1020.63 2067.53 1015.54 2067.61 1015.65 2063.88 1011.23 2064.02 1011.36 2059.65 1007.67 2059.82 1007.78 2054.63 1004.77 2054.77 1004.84 2048.87 1002.43 2048.98 1002.47 2042.49 1000.62 2042.59 1000.64 2035.62 999.254 2035.7 999.266 2028.38 998.292 2028.46 998.3 2013.24 997.307 2013.3 997.309 1998.09 997.139 1998.11 997.139 1990.81 997.194 1983.85 997.25 1977.36 997.241 1971.45 997.099 1966.22 996.752 1961.84 996.135ZM1981.72 1283.52 1961.99 1270.84 1982.04 1258.67C1982.58 1258.34 1983.28 1258.51 1983.61 1259.05 1983.94 1259.59 1983.77 1260.3 1983.23 1260.62L1964.75 1271.85 1964.77 1269.9 1982.96 1281.6C1983.49 1281.94 1983.64 1282.65 1983.3 1283.18 1982.96 1283.71 1982.25 1283.87 1981.72 1283.52Z" fill="#172C51"/><path d="M1962.11 991.859 1966.44 992.269 1966.39 992.265 1971.55 992.495 1971.52 992.494 1977.4 992.589 1977.38 992.589 1983.85 992.594 1983.84 992.594 1990.79 992.557 1998.1 992.52 2013.34 992.634 2028.61 993.302 2035.97 993.959 2042.99 994.894 2049.56 996.155 2055.56 997.794 2060.89 999.868 2065.4 1002.43 2069.25 1005.49 2072.7 1009 2075.77 1012.91 2078.48 1017.21 2082.87 1026.62 2086.01 1036.95 2088.01 1047.83 2089 1058.89 2089.08 1069.79 2088.35 1080.19 2086.66 1090.76 2083.83 1102.11 2079.96 1113.82 2075.14 1125.48 2069.47 1136.67 2063.04 1146.96 2059.56 1151.65 2055.92 1155.96 2052.13 1159.83 2048.2 1163.22 2044.07 1166.15 2039.67 1168.71 2030.25 1172.76 2020.04 1175.63 2009.19 1177.49 1997.82 1178.57 1986.08 1179.05 1974.09 1179.14 1964.14 1179.06 1964.16 1176.76 1974.1 1176.85 1974.09 1176.85 1986.05 1176.76 1986.01 1176.76 1997.7 1176.28 1997.64 1176.28 2008.93 1175.22 2008.84 1175.23 2019.59 1173.38 2019.48 1173.4 2029.56 1170.58 2029.42 1170.63 2038.7 1166.63 2038.57 1166.69 2042.87 1164.19 2042.78 1164.25 2046.83 1161.38 2046.74 1161.45 2050.59 1158.13 2050.52 1158.2 2054.25 1154.39 2054.19 1154.45 2057.78 1150.2 2057.74 1150.26 2061.18 1145.63 2061.12 1145.7 2067.5 1135.5 2067.45 1135.59 2073.07 1124.49 2073.04 1124.57 2077.82 1112.99 2077.79 1113.07 2081.64 1101.43 2081.61 1101.51 2084.42 1090.25 2084.4 1090.34 2086.08 1079.87 2086.07 1079.98 2086.79 1069.67 2086.78 1069.76 2086.71 1058.95 2086.71 1059.04 2085.73 1048.08 2085.75 1048.19 2083.76 1037.43 2083.79 1037.56 2080.7 1027.37 2080.75 1027.52 2076.44 1018.24 2076.51 1018.37 2073.86 1014.19 2073.93 1014.28 2070.93 1010.46 2071.02 1010.56 2067.67 1007.15 2067.77 1007.24 2064.05 1004.28 2064.19 1004.38 2059.83 1001.9 2059.98 1001.97 2054.79 999.951 2054.9 999.989 2049 998.377 2049.08 998.397 2042.59 997.151 2042.66 997.161 2035.7 996.234 2035.74 996.24 2028.43 995.587 2028.48 995.59 2013.26 994.925 2013.3 994.926 1998.09 994.812 1998.11 994.812 1990.8 994.848 1983.85 994.886 1977.37 994.88 1971.46 994.785 1966.25 994.553 1961.89 994.141ZM1981.77 1190.49 1961.99 1177.89 1981.99 1165.63C1982.53 1165.3 1983.23 1165.47 1983.56 1166.01 1983.89 1166.55 1983.72 1167.26 1983.18 1167.59L1964.75 1178.89 1964.77 1176.94 1983 1188.56C1983.54 1188.9 1983.69 1189.61 1983.35 1190.14 1983.01 1190.68 1982.31 1190.83 1981.77 1190.49Z" fill="#172C51"/><path d="M1962.06 991.856 1966.39 992.075 1966.36 992.074 1971.53 992.197 1971.51 992.196 1977.39 992.247 1977.38 992.247 1983.85 992.25 1983.85 992.25 1990.79 992.23 1998.1 992.211 2013.33 992.272 2028.57 992.628 2035.91 992.979 2042.91 993.477 2049.44 994.149 2055.4 995.02 2060.68 996.119 2065.15 997.478 2068.98 999.108 2072.46 1001 2078.26 1005.41 2082.73 1010.55 2085.94 1016.19 2087.99 1022.14 2089 1028.18 2089.08 1034.14 2088.34 1039.83 2086.61 1045.6 2083.74 1051.76 2079.82 1058.1 2074.97 1064.39 2069.26 1070.41 2062.79 1075.95 2055.65 1080.78 2047.94 1084.67 2039.47 1087.58 2030.09 1089.75 2019.93 1091.27 2009.12 1092.26 1997.79 1092.84 1986.07 1093.1 1964.15 1093.09 1964.15 1090.8 1986.05 1090.8 1986.03 1090.8 1997.72 1090.55 1997.69 1090.55 2008.98 1089.98 2008.93 1089.98 2019.68 1088.99 2019.62 1089 2029.7 1087.49 2029.61 1087.5 2038.89 1085.36 2038.78 1085.4 2047.12 1082.52 2046.97 1082.58 2054.55 1078.77 2054.43 1078.84 2061.45 1074.09 2061.35 1074.17 2067.72 1068.71 2067.64 1068.79 2073.27 1062.85 2073.19 1062.94 2077.97 1056.74 2077.91 1056.84 2081.75 1050.62 2081.69 1050.73 2084.5 1044.71 2084.44 1044.86 2086.11 1039.26 2086.08 1039.44 2086.79 1033.92 2086.78 1034.09 2086.71 1028.3 2086.72 1028.48 2085.75 1022.61 2085.79 1022.8 2083.81 1017.04 2083.89 1017.23 2080.8 1011.78 2080.93 1011.96 2076.61 1007 2076.78 1007.16 2071.14 1002.88 2071.29 1002.97 2067.93 1001.15 2068.03 1001.2 2064.31 999.611 2064.43 999.653 2060.06 998.327 2060.16 998.352 2054.97 997.27 2055.04 997.282 2049.13 996.42 2049.18 996.426 2042.69 995.759 2042.73 995.762 2035.76 995.266 2035.79 995.268 2028.48 994.918 2028.5 994.919 2013.29 994.563 2013.31 994.563 1998.1 994.502 1998.11 994.502 1990.8 994.522 1983.85 994.542 1977.37 994.539 1971.48 994.488 1966.29 994.365 1961.94 994.144ZM1981.88 1104.38 1961.99 1091.94 1981.88 1079.52C1982.42 1079.18 1983.13 1079.35 1983.46 1079.88 1983.8 1080.42 1983.63 1081.13 1983.1 1081.46L1964.76 1092.91 1964.76 1090.97 1983.09 1102.44C1983.63 1102.77 1983.79 1103.48 1983.46 1104.01 1983.12 1104.55 1982.41 1104.71 1981.88 1104.38Z" fill="#172C51"/><path d="M1962.06 1088.86 1965.68 1089.06 1965.64 1089.05 1969.95 1089.17 1969.93 1089.17 1974.83 1089.21 1974.82 1089.21 1980.21 1089.21 1980.2 1089.21 1985.99 1089.2 1992.09 1089.18 2004.78 1089.23 2017.49 1089.56 2023.61 1089.88 2029.45 1090.33 2034.9 1090.94 2039.89 1091.74 2044.3 1092.74 2048.08 1093.99 2054.17 1097.19 2059.05 1101.24 2062.79 1105.93 2065.47 1111.07 2067.18 1116.49 2068.02 1121.99 2068.09 1127.4 2067.47 1132.57 2066.03 1137.82 2063.63 1143.43 2060.37 1149.2 2056.32 1154.93 2051.55 1160.42 2046.15 1165.47 2040.18 1169.87 2033.72 1173.41 2026.63 1176.08 2018.79 1178.05 2010.31 1179.44 2001.29 1180.34 1991.83 1180.86 1982.06 1181.1 1964.15 1181.09 1964.15 1178.8 1982.05 1178.81 1982.02 1178.81 1991.76 1178.57 1991.73 1178.58 2001.13 1178.06 2001.08 1178.06 2010.04 1177.16 2009.97 1177.17 2018.37 1175.8 2018.28 1175.82 2026.01 1173.87 2025.89 1173.91 2032.84 1171.3 2032.69 1171.37 2039.01 1167.9 2038.88 1167.98 2044.73 1163.66 2044.63 1163.75 2049.94 1158.78 2049.86 1158.87 2054.55 1153.47 2054.48 1153.56 2058.47 1147.92 2058.4 1148.02 2061.61 1142.36 2061.55 1142.47 2063.89 1136.99 2063.84 1137.14 2065.24 1132.05 2065.21 1132.22 2065.8 1127.2 2065.8 1127.35 2065.73 1122.09 2065.74 1122.25 2064.93 1116.92 2064.97 1117.09 2063.32 1111.86 2063.39 1112.04 2060.81 1107.09 2060.93 1107.27 2057.33 1102.76 2057.5 1102.93 2052.8 1099.03 2053 1099.17 2047.1 1096.07 2047.27 1096.14 2043.63 1094.93 2043.74 1094.96 2039.41 1093.98 2039.49 1093.99 2034.57 1093.21 2034.62 1093.22 2029.21 1092.61 2029.25 1092.61 2023.45 1092.16 2023.48 1092.17 2017.38 1091.85 2017.41 1091.85 2004.73 1091.52 2004.76 1091.53 1992.08 1091.47 1992.09 1091.47 1986 1091.49 1980.21 1091.51 1974.81 1091.5 1969.9 1091.46 1965.57 1091.34 1961.94 1091.14ZM1981.88 1192.38 1961.99 1179.95 1981.88 1167.52C1982.42 1167.19 1983.13 1167.35 1983.46 1167.89 1983.8 1168.43 1983.64 1169.13 1983.1 1169.47L1964.76 1180.92 1964.76 1178.98 1983.09 1190.44C1983.63 1190.78 1983.79 1191.48 1983.46 1192.02 1983.12 1192.56 1982.41 1192.72 1981.88 1192.38Z"/><path d="M1960.13 1089.86 1963.71 1090.27 1963.64 1090.26 1967.9 1090.49 1967.86 1090.49 1972.71 1090.58 1972.69 1090.58 1978.04 1090.59 1978.03 1090.59 1983.76 1090.55 1989.8 1090.51 2002.39 1090.63 2015.01 1091.29 2021.1 1091.94 2026.92 1092.87 2032.36 1094.12 2037.35 1095.75 2041.78 1097.82 2045.54 1100.38 2048.73 1103.42 2051.58 1106.9 2054.12 1110.77 2056.36 1115.01 2059.97 1124.32 2062.56 1134.52 2064.21 1145.26 2065.02 1156.18 2065.09 1166.95 2064.49 1177.22 2063.1 1187.66 2060.76 1198.88 2057.57 1210.46 2053.59 1221.99 2048.92 1233.05 2043.61 1243.22 2040.74 1247.87 2037.73 1252.13 2034.6 1255.97 2031.35 1259.32 2027.92 1262.23 2024.27 1264.78 2016.47 1268.81 2008 1271.65 1999 1273.51 1989.6 1274.57 1979.89 1275.05 1969.98 1275.14 1962.14 1275.06 1962.17 1272.77 1969.99 1272.85 1969.97 1272.85 1979.84 1272.76 1979.8 1272.76 1989.45 1272.29 1989.38 1272.29 1998.69 1271.24 1998.59 1271.25 2007.47 1269.42 2007.33 1269.46 2015.66 1266.66 2015.5 1266.73 2023.15 1262.78 2023.02 1262.86 2026.57 1260.38 2026.48 1260.45 2029.82 1257.61 2029.74 1257.69 2032.92 1254.41 2032.86 1254.48 2035.93 1250.71 2035.88 1250.77 2038.84 1246.57 2038.81 1246.63 2041.64 1242.05 2041.6 1242.12 2046.86 1232.03 2046.82 1232.11 2051.47 1221.13 2051.44 1221.2 2055.39 1209.75 2055.37 1209.82 2058.54 1198.31 2058.52 1198.38 2060.84 1187.24 2060.83 1187.32 2062.21 1176.96 2062.21 1177.05 2062.8 1166.85 2062.8 1166.93 2062.73 1156.23 2062.74 1156.31 2061.93 1145.47 2061.94 1145.56 2060.3 1134.92 2060.32 1135.03 2057.77 1124.95 2057.81 1125.08 2054.25 1115.91 2054.3 1116.03 2052.11 1111.89 2052.17 1111.98 2049.7 1108.2 2049.77 1108.3 2047 1104.93 2047.1 1105.03 2044.03 1102.1 2044.17 1102.22 2040.57 1099.77 2040.73 1099.86 2036.44 1097.86 2036.57 1097.91 2031.7 1096.31 2031.8 1096.34 2026.44 1095.11 2026.52 1095.12 2020.77 1094.21 2020.83 1094.22 2014.79 1093.57 2014.85 1093.57 2002.29 1092.92 2002.34 1092.92 1989.79 1092.8 1989.81 1092.8 1983.78 1092.84 1978.04 1092.88 1972.68 1092.87 1967.8 1092.78 1963.48 1092.55 1959.87 1092.14ZM1979.75 1286.53 1959.99 1273.89 1980.01 1261.67C1980.55 1261.34 1981.25 1261.51 1981.58 1262.05 1981.91 1262.59 1981.74 1263.3 1981.2 1263.63L1962.75 1274.89 1962.77 1272.95 1980.98 1284.6C1981.52 1284.94 1981.67 1285.65 1981.33 1286.18 1980.99 1286.71 1980.28 1286.87 1979.75 1286.53Z"/><path d="M1960.21 1089.87 1963.79 1090.54 1963.68 1090.52 1967.94 1090.9 1967.88 1090.89 1972.73 1091.05 1972.69 1091.05 1978.04 1091.05 1978.02 1091.05 1983.76 1090.99 1989.8 1090.93 2002.41 1091.12 2015.06 1092.21 2021.2 1093.28 2027.05 1094.81 2032.53 1096.88 2037.55 1099.57 2042 1102.97 2045.73 1107.14 2048.89 1112.07 2051.7 1117.7 2054.21 1123.98 2056.41 1130.83 2058.34 1138.18 2060 1145.98 2062.57 1162.58 2064.22 1180.08 2065.02 1197.9 2065.09 1215.48 2064.49 1232.23 2063.92 1240.55 2063.1 1249.28 2060.78 1267.58 2057.6 1286.5 2053.64 1305.32 2048.98 1323.38 2046.41 1331.91 2043.7 1340 2040.84 1347.55 2037.86 1354.49 2034.75 1360.73 2031.52 1366.2 2028.12 1370.93 2024.5 1375.07 2020.68 1378.65 2016.67 1381.7 2012.49 1384.27 2008.16 1386.39 2003.69 1388.1 1999.09 1389.45 1989.66 1391.2 1979.91 1391.99 1969.98 1392.14 1962.13 1392.01 1962.17 1389.72 1970 1389.85 1969.97 1389.85 1979.84 1389.7 1979.76 1389.71 1989.41 1388.92 1989.3 1388.94 1998.61 1387.21 1998.5 1387.24 2003 1385.91 2002.91 1385.94 2007.29 1384.27 2007.19 1384.31 2011.43 1382.23 2011.34 1382.29 2015.42 1379.78 2015.33 1379.84 2019.25 1376.86 2019.16 1376.93 2022.9 1373.43 2022.82 1373.52 2026.36 1369.46 2026.29 1369.55 2029.63 1364.9 2029.58 1364.99 2032.76 1359.6 2032.72 1359.67 2035.79 1353.5 2035.77 1353.55 2038.73 1346.67 2038.71 1346.72 2041.55 1339.21 2041.53 1339.25 2044.23 1331.2 2044.22 1331.23 2046.78 1322.74 2046.77 1322.78 2051.42 1304.78 2051.4 1304.83 2055.35 1286.05 2055.34 1286.09 2058.52 1267.23 2058.51 1267.27 2060.83 1249.01 2060.82 1249.04 2061.64 1240.35 2061.64 1240.38 2062.21 1232.09 2062.2 1232.13 2062.8 1215.42 2062.8 1215.46 2062.73 1197.93 2062.73 1197.98 2061.93 1180.21 2061.93 1180.26 2060.29 1162.83 2060.3 1162.89 2057.74 1146.37 2057.76 1146.43 2056.11 1138.69 2056.12 1138.74 2054.21 1131.44 2054.22 1131.5 2052.04 1124.72 2052.06 1124.79 2049.59 1118.6 2049.63 1118.68 2046.87 1113.15 2046.93 1113.26 2043.85 1108.45 2043.96 1108.6 2040.36 1104.58 2040.52 1104.73 2036.23 1101.45 2036.39 1101.55 2031.52 1098.94 2031.65 1099 2026.3 1096.98 2026.41 1097.01 2020.66 1095.51 2020.75 1095.53 2014.72 1094.47 2014.82 1094.49 2002.26 1093.41 2002.34 1093.41 1989.78 1093.23 1989.81 1093.23 1983.78 1093.28 1978.04 1093.35 1972.67 1093.34 1967.77 1093.18 1963.42 1092.8 1959.79 1092.13ZM1979.67 1403.59 1959.99 1390.82 1980.09 1378.73C1980.63 1378.41 1981.34 1378.58 1981.66 1379.13 1981.99 1379.67 1981.81 1380.37 1981.27 1380.7L1962.74 1391.84 1962.78 1389.9 1980.91 1401.67C1981.44 1402.01 1981.6 1402.72 1981.25 1403.25 1980.91 1403.78 1980.2 1403.94 1979.67 1403.59Z"/><path d="M1963.09 1177.86 1965.63 1178.05 1965.59 1178.05 1968.62 1178.16 1968.59 1178.16 1972.05 1178.21 1972.03 1178.21 1975.83 1178.21 1975.83 1178.21 1984.2 1178.17 1993.16 1178.23 2002.15 1178.55 2010.6 1179.32 2014.49 1179.93 2018.04 1180.72 2021.2 1181.73 2023.94 1183 2028.29 1186.22 2031.76 1190.25 2034.4 1194.89 2036.28 1199.95 2037.47 1205.26 2038.06 1210.66 2038.1 1215.97 2037.67 1221.04 2036.67 1226.2 2034.98 1231.72 2032.69 1237.41 2029.84 1243.07 2026.47 1248.5 2022.66 1253.5 2018.43 1257.88 2013.83 1261.42 2008.77 1264.09 2003.18 1266.06 1997.15 1267.45 1990.75 1268.35 1984.06 1268.87 1977.15 1269.1 1965.15 1269.09 1965.15 1266.8 1977.13 1266.81 1977.09 1266.81 1983.95 1266.58 1983.91 1266.58 1990.54 1266.07 1990.46 1266.07 1996.78 1265.19 1996.68 1265.2 2002.6 1263.84 2002.48 1263.88 2007.93 1261.96 2007.78 1262.02 2012.67 1259.44 2012.51 1259.55 2016.96 1256.12 2016.84 1256.23 2020.96 1251.96 2020.88 1252.06 2024.62 1247.15 2024.56 1247.24 2027.86 1241.9 2027.81 1241.99 2030.62 1236.42 2030.58 1236.51 2032.84 1230.91 2032.81 1231 2034.46 1225.58 2034.43 1225.7 2035.41 1220.66 2035.4 1220.78 2035.82 1215.83 2035.81 1215.93 2035.77 1210.73 2035.77 1210.85 2035.2 1205.57 2035.22 1205.7 2034.06 1200.53 2034.1 1200.68 2032.28 1195.77 2032.36 1195.94 2029.82 1191.48 2029.95 1191.66 2026.64 1187.81 2026.83 1187.98 2022.67 1184.92 2022.87 1185.03 2020.3 1183.84 2020.44 1183.89 2017.39 1182.92 2017.49 1182.95 2014.02 1182.17 2014.09 1182.19 2010.28 1181.59 2010.36 1181.6 2001.97 1180.84 2002.03 1180.84 1993.09 1180.52 1993.13 1180.52 1984.2 1180.47 1984.21 1180.47 1975.83 1180.5 1972.02 1180.5 1968.55 1180.45 1965.48 1180.34 1962.91 1180.14ZM1982.87 1280.39 1962.99 1267.95 1982.89 1255.53C1983.42 1255.19 1984.13 1255.36 1984.47 1255.89 1984.8 1256.43 1984.64 1257.14 1984.1 1257.47L1965.76 1268.92 1965.76 1266.98 1984.09 1278.44C1984.63 1278.78 1984.79 1279.49 1984.45 1280.02 1984.12 1280.56 1983.41 1280.72 1982.87 1280.39Z"/><path d="M1963.21 1176.87 1965.79 1177.35 1965.68 1177.33 1968.75 1177.6 1968.69 1177.6 1972.19 1177.71 1972.16 1177.71 1976.01 1177.71 1975.99 1177.71 1984.49 1177.63 1993.6 1177.76 2002.77 1178.54 2011.42 1180.41 2015.44 1181.92 2019.1 1183.87 2022.35 1186.34 2025.08 1189.37 2027.38 1192.94 2029.42 1197 2031.24 1201.52 2032.84 1206.46 2035.43 1217.33 2037.29 1229.26 2038.47 1241.82 2039.06 1254.6 2039.1 1267.21 2038.68 1279.24 2037.67 1291.46 2035.99 1304.6 2033.7 1318.17 2030.84 1331.67 2027.48 1344.62 2025.62 1350.75 2023.66 1356.56 2021.6 1361.98 2019.44 1366.97 2017.19 1371.47 2014.85 1375.4 2012.38 1378.82 2009.74 1381.81 2006.96 1384.4 2004.02 1386.62 1997.86 1389.99 1991.29 1392.2 1984.43 1393.47 1977.37 1394.04 1970.2 1394.14 1965.13 1394.06 1965.17 1391.76 1970.22 1391.85 1970.18 1391.85 1977.3 1391.74 1977.23 1391.75 1984.19 1391.19 1984.07 1391.2 1990.79 1389.96 1990.63 1390 1997.03 1387.85 1996.85 1387.94 2002.85 1384.65 2002.71 1384.74 2005.53 1382.6 2005.45 1382.68 2008.14 1380.17 2008.06 1380.25 2010.62 1377.35 2010.55 1377.43 2012.96 1374.1 2012.9 1374.19 2015.2 1370.33 2015.16 1370.4 2017.37 1365.97 2017.35 1366.03 2019.48 1361.1 2019.46 1361.15 2021.51 1355.76 2021.5 1355.8 2023.44 1350.04 2023.43 1350.07 2025.28 1343.98 2025.27 1344.03 2028.62 1331.12 2028.6 1331.17 2031.45 1317.72 2031.44 1317.76 2033.73 1304.24 2033.72 1304.29 2035.4 1291.2 2035.39 1291.25 2036.39 1279.08 2036.39 1279.13 2036.81 1267.16 2036.81 1267.2 2036.77 1254.64 2036.77 1254.69 2036.19 1241.95 2036.19 1242 2035.01 1229.51 2035.02 1229.57 2033.17 1217.73 2033.19 1217.82 2030.62 1207.04 2030.65 1207.13 2029.07 1202.27 2029.1 1202.34 2027.31 1197.9 2027.35 1197.99 2025.36 1194.02 2025.42 1194.13 2023.2 1190.69 2023.32 1190.83 2020.72 1187.95 2020.87 1188.1 2017.78 1185.75 2017.94 1185.85 2014.43 1183.98 2014.56 1184.04 2010.7 1182.59 2010.86 1182.64 2002.36 1180.8 2002.5 1180.82 1993.45 1180.05 1993.53 1180.05 1984.47 1179.92 1984.5 1179.92 1976.01 1180.01 1972.13 1180 1968.59 1179.89 1965.43 1179.61 1962.79 1179.13ZM1982.67 1405.64 1962.99 1392.87 1983.09 1380.78C1983.63 1380.46 1984.33 1380.63 1984.66 1381.17 1984.99 1381.71 1984.81 1382.42 1984.27 1382.75L1965.74 1393.89 1965.78 1391.95 1983.91 1403.72C1984.45 1404.06 1984.6 1404.77 1984.25 1405.3 1983.91 1405.83 1983.2 1405.98 1982.67 1405.64Z"/><path d="M1963.14 1272.86 1965.31 1273.13 1965.23 1273.12 1967.82 1273.27 1967.76 1273.27 1973.94 1273.33 1973.92 1273.33 1981.05 1273.28 1988.69 1273.36 1996.38 1273.79 2003.65 1274.82 2010.02 1276.71 2012.8 1278.1 2015.16 1279.83 2018.86 1284.12 2021.79 1289.45 2024 1295.56 2025.57 1302.23 2026.58 1309.24 2027.07 1316.37 2027.11 1323.4 2026.75 1330.1 2025.9 1336.91 2024.48 1344.23 2022.54 1351.78 2020.13 1359.3 2017.28 1366.51 2014.05 1373.17 2010.47 1378.99 2006.56 1383.73 2002.22 1387.31 1997.41 1389.98 1992.21 1391.86 1986.71 1393.07 1980.97 1393.77 1975.06 1394.08 1965.15 1394.08 1965.16 1391.79 1975.03 1391.79 1974.97 1391.79 1980.81 1391.49 1980.73 1391.49 1986.38 1390.81 1986.27 1390.82 1991.65 1389.63 1991.51 1389.68 1996.55 1387.86 1996.38 1387.93 2001.02 1385.36 2000.84 1385.48 2005.01 1382.03 2004.86 1382.18 2008.65 1377.6 2008.56 1377.73 2012.07 1372.02 2012.02 1372.11 2015.2 1365.55 2015.17 1365.63 2017.98 1358.49 2017.96 1358.56 2020.35 1351.11 2020.33 1351.18 2022.25 1343.69 2022.24 1343.76 2023.64 1336.51 2023.63 1336.59 2024.47 1329.86 2024.46 1329.94 2024.82 1323.31 2024.82 1323.38 2024.78 1316.42 2024.78 1316.49 2024.29 1309.44 2024.3 1309.53 2023.31 1302.61 2023.33 1302.71 2021.78 1296.16 2021.82 1296.28 2019.66 1290.32 2019.73 1290.48 2016.91 1285.33 2017.05 1285.53 2013.51 1281.43 2013.7 1281.6 2011.52 1280.01 2011.68 1280.11 2009.09 1278.81 2009.27 1278.88 2003.08 1277.04 2003.24 1277.08 1996.1 1276.06 1996.2 1276.07 1988.59 1275.65 1988.65 1275.65 1981.04 1275.57 1981.06 1275.57 1973.92 1275.62 1967.71 1275.56 1965.07 1275.41 1962.86 1275.14ZM1982.87 1405.38 1962.99 1392.93 1982.89 1380.52C1983.43 1380.18 1984.13 1380.34 1984.47 1380.88 1984.8 1381.42 1984.64 1382.12 1984.1 1382.46L1965.76 1393.9 1965.76 1391.96 1984.09 1403.43C1984.62 1403.77 1984.79 1404.48 1984.45 1405.01 1984.11 1405.55 1983.41 1405.71 1982.87 1405.38Z"/><path d="M3.4374-0.0255919 3.70852 36.3902-3.16629 36.4414-3.4374 0.0255919ZM13.9866 31.7302 0.441732 59.3318-13.5126 31.9349Z" transform="matrix(-1 0 0 1 1771.94 361.5)"/><path d="M3.4374-0.0255919 3.70852 36.3902-3.16629 36.4414-3.4374 0.0255919ZM13.9866 31.7302 0.441732 59.3318-13.5126 31.9349Z" transform="matrix(-1 0 0 1 1771.94 539.5)"/><path d="M3.4374-0.0255919 3.70852 36.3902-3.16629 36.4414-3.4374 0.0255919ZM13.9866 31.7302 0.441732 59.3318-13.5126 31.9349Z" transform="matrix(-1 0 0 1 1768.94 720.5)"/><path d="M3.43692-0.0632714 4.36304 50.2439-2.51079 50.3705-3.43692 0.0632714ZM14.5894 45.4716 1.34793 73.22-12.9059 45.9778Z" transform="matrix(-1 0 0 1 1772.85 1504.5)"/><path d="M1774.94 1697.5 1774.94 1741.26 1768.06 1741.26 1768.06 1697.5ZM1785.25 1736.67 1771.5 1764.17 1757.75 1736.67Z"/><path d="M1775.3 1847.5 1775.3 1898.54 1551.5 1898.54 1554.94 1895.1 1554.94 1919.78 1548.06 1919.78 1548.06 1891.66 1771.86 1891.66 1768.42 1895.1 1768.42 1847.5ZM1565.25 1915.2 1551.5 1942.7 1537.75 1915.2Z"/><path d="M0-3.4375 51.0381-3.4375 51.0381 236.251 47.6006 232.813 72.2842 232.813 72.2842 239.688 44.1631 239.688 44.1631 0 47.6006 3.4375 0 3.4375ZM67.7009 222.501 95.2009 236.251 67.7009 250.001Z" transform="matrix(1.83697e-16 1 1 -1.83697e-16 1771.5 1847.5)"/><path d="M1324.5 649.793C1324.5 606.553 1359.55 571.5 1402.79 571.5L2142.21 571.5C2185.45 571.5 2220.5 606.553 2220.5 649.793L2220.5 1644.21C2220.5 1687.45 2185.45 1722.5 2142.21 1722.5L1402.79 1722.5C1359.55 1722.5 1324.5 1687.45 1324.5 1644.21Z" stroke="#172C51" stroke-width="4.58333" stroke-linecap="square" stroke-miterlimit="8" stroke-dasharray="13.75 4.58333" fill="none" fill-rule="evenodd"/><text font-family="DengXian,DengXian_MSFontService,sans-serif" font-weight="700" font-size="55" transform="matrix(6.12323e-17 1 -1 6.12323e-17 2250.37 947)">Neural Network</text></g></svg>