<svg width="2154" height="2021" xmlns="http://www.w3.org/2000/svg" xmlns:xlink="http://www.w3.org/1999/xlink" xml:space="preserve" overflow="hidden"><g transform="translate(-189 -132)"><path d="M191.5 298.003C191.5 207.703 264.703 134.5 355.003 134.5L1009 134.5C1099.3 134.5 1172.5 207.703 1172.5 298.003L1172.5 951.996C1172.5 1042.3 1099.3 1115.5 1009 1115.5L355.003 1115.5C264.703 1115.5 191.5 1042.3 191.5 951.996Z" stroke="#D9D9D9" stroke-width="4.58333" stroke-miterlimit="8" fill="#F2F2F2" fill-rule="evenodd"/><path d="M191.5 1333.84C191.5 1243.63 264.628 1170.5 354.837 1170.5L1009.16 1170.5C1099.37 1170.5 1172.5 1243.63 1172.5 1333.84L1172.5 1987.16C1172.5 2077.37 1099.37 2150.5 1009.16 2150.5L354.837 2150.5C264.628 2150.5 191.5 2077.37 191.5 1987.16Z" stroke="#D9D9D9" stroke-width="4.58333" stroke-miterlimit="8" fill="#F2F2F2" fill-rule="evenodd"/><path d="M1281.5 310.984C1281.5 213.514 1360.51 134.5 1457.98 134.5L2163.9 134.5C2261.37 134.5 2340.38 213.514 2340.38 310.984L2340.38 1974.02C2340.38 2071.49 2261.37 2150.5 2163.9 2150.5L1457.98 2150.5C1360.51 2150.5 1281.5 2071.49 1281.5 1974.02Z" stroke="#D9D9D9" stroke-width="4.58333" stroke-miterlimit="8" fill="#F2F2F2" fill-rule="evenodd"/><path d="M745.5 264.5 1088.33 264.5 1107.5 283.667 1107.5 379.5 745.5 379.5Z" stroke="#172C51" stroke-width="4.58333" stroke-miterlimit="8" fill="#E2F0D9" fill-rule="evenodd"/><path d="M257.5 264.5 600.166 264.5 619.5 283.833 619.5 380.5 257.5 380.5Z" stroke="#172C51" stroke-width="4.58333" stroke-miterlimit="8" fill="#E2F0D9" fill-rule="evenodd"/><text font-family="DengXian,DengXian_MSFontService,sans-serif" font-weight="400" font-size="46" transform="matrix(1 0 0 1 319.483 337)">Sequence A</text><text font-family="DengXian,DengXian_MSFontService,sans-serif" font-weight="400" font-size="46" transform="matrix(1 0 0 1 811.487 337)">Sequence B</text><text font-family="DengXian,DengXian_MSFontService,sans-serif" font-weight="700" font-size="55" transform="matrix(1 0 0 1 333.454 227)">Protein Structure Prediction</text><text font-family="DengXian,DengXian_MSFontService,sans-serif" font-weight="700" font-size="55" transform="matrix(1 0 0 1 506.188 1255)">Preprocessing</text><text font-family="DengXian,DengXian_MSFontService,sans-serif" font-weight="700" font-size="55" transform="matrix(1 0 0 1 1494.27 227)">Deep Learning Prediction</text><path d="M318.5 525.334C318.5 501.678 337.678 482.5 361.334 482.5L1001.67 482.5C1025.32 482.5 1044.5 501.678 1044.5 525.334L1044.5 696.666C1044.5 720.322 1025.32 739.5 1001.67 739.5L361.334 739.5C337.678 739.5 318.5 720.322 318.5 696.666Z" stroke="#172C51" stroke-width="4.58333" stroke-miterlimit="8" fill="#DAE3F3" fill-rule="evenodd"/><text font-family="DengXian,DengXian_MSFontService,sans-serif" font-weight="700" font-size="46" transform="matrix(1 0 0 1 472.959 598)">AlphaFold Multimer </text><text font-family="DengXian,DengXian_MSFontService,sans-serif" font-weight="700" font-size="46" transform="matrix(1 0 0 1 574.64 653)">Prediction</text><path d="M3.43724-0.0419017 4.40081 79.0006-2.47368 79.0845-3.43724 0.0419017ZM14.6567 74.292 1.24291 101.958-12.8413 74.6272Z" transform="matrix(-1 0 0 1 438.743 380.5)"/><path d="M929.937 379.485 930.28 459.279 923.405 459.309 923.062 379.515ZM940.573 454.652 926.941 482.211 913.073 454.77Z"/><path d="M468.5 855.5 875.333 855.5 894.5 874.667 894.5 970.5 468.5 970.5Z" stroke="#172C51" stroke-width="4.58333" stroke-miterlimit="8" fill="#E2F0D9" fill-rule="evenodd"/><text font-family="DengXian,DengXian_MSFontService,sans-serif" font-weight="400" font-size="46" transform="matrix(1 0 0 1 511.112 905)">Protein Structure </text><text font-family="DengXian,DengXian_MSFontService,sans-serif" font-weight="400" font-size="46" transform="matrix(1 0 0 1 599.914 960)">PDB file</text><path d="M684.938 746.486 685.286 832.581 678.412 832.608 678.063 746.514ZM695.58 827.955 681.942 855.511 668.081 828.067Z"/><path d="M516.5 1347.33C516.5 1336.38 525.38 1327.5 536.334 1327.5L1024.67 1327.5C1035.62 1327.5 1044.5 1336.38 1044.5 1347.33L1044.5 1426.67C1044.5 1437.62 1035.62 1446.5 1024.67 1446.5L536.334 1446.5C525.38 1446.5 516.5 1437.62 516.5 1426.67Z" stroke="#172C51" stroke-width="4.58333" stroke-miterlimit="8" fill="#DAE3F3" fill-rule="evenodd"/><text font-family="DengXian,DengXian_MSFontService,sans-serif" font-weight="700" font-size="46" transform="matrix(1 0 0 1 564.683 1402)">Interface Calculation</text><path d="M288.5 1679.5C288.5 1668.45 297.454 1659.5 308.5 1659.5L1054.5 1659.5C1065.55 1659.5 1074.5 1668.45 1074.5 1679.5L1074.5 1759.5C1074.5 1770.55 1065.55 1779.5 1054.5 1779.5L308.5 1779.5C297.454 1779.5 288.5 1770.55 288.5 1759.5Z" stroke="#172C51" stroke-width="4.58333" stroke-miterlimit="8" fill="#DAE3F3" fill-rule="evenodd"/><text font-family="DengXian,DengXian_MSFontService,sans-serif" font-weight="700" font-size="46" transform="matrix(1 0 0 1 540.121 1734)">Tensorization</text><path d="M567.5 1501.5 979.667 1501.5 993.5 1515.33 993.5 1584.5 567.5 1584.5Z" stroke="#172C51" stroke-width="4.58333" stroke-miterlimit="8" fill="#E2F0D9" fill-rule="evenodd"/><text font-family="DengXian,DengXian_MSFontService,sans-serif" font-weight="400" font-size="46" transform="matrix(1 0 0 1 619.355 1562)">Interface Center</text><path d="M3.4375-2.26385e-05 3.43771 31.8823-3.43729 31.8823-3.4375 2.26385e-05ZM13.7502 27.2989 0.000360892 54.799-13.7498 27.2991Z" transform="matrix(-1 0 0 1 780.501 1446.5)"/><path d="M784.937 1588.5 784.938 1636.65 778.063 1636.65 778.062 1588.5ZM795.25 1632.06 781.5 1659.56 767.75 1632.06Z"/><path d="M0 0 0.441732 83.3113" stroke="#000000" stroke-width="6.875" stroke-miterlimit="8" fill="none" fill-rule="evenodd" transform="matrix(-1 0 0 1 681.942 970.5)"/><path d="M0 0 276.866 0.000360892" stroke="#000000" stroke-width="6.875" stroke-miterlimit="8" fill="none" fill-rule="evenodd" transform="matrix(-1 0 0 1 681.366 1054.5)"/><path d="M403.937 1054.5 403.938 1637.3 397.063 1637.3 397.062 1054.5ZM414.25 1632.72 400.5 1660.22 386.75 1632.72Z"/><path d="M400.5 1383.06 492.739 1383.06 492.739 1389.94 400.5 1389.94ZM488.156 1372.75 515.656 1386.5 488.156 1400.25Z"/><path d="M468.5 2037.5 880.667 2037.5 894.5 2051.33 894.5 2120.5 468.5 2120.5Z" stroke="#172C51" stroke-width="4.58333" stroke-miterlimit="8" fill="#E2F0D9" fill-rule="evenodd"/><text font-family="DengXian,DengXian_MSFontService,sans-serif" font-weight="400" font-size="46" transform="matrix(1 0 0 1 601.382 2097)">Tensors</text><path d="M270.5 1859.33C270.5 1848.38 279.38 1839.5 290.334 1839.5L514.666 1839.5C525.62 1839.5 534.5 1848.38 534.5 1859.33L534.5 1938.67C534.5 1949.62 525.62 1958.5 514.666 1958.5L290.334 1958.5C279.38 1958.5 270.5 1949.62 270.5 1938.67Z" stroke="#172C51" stroke-width="4.58333" stroke-miterlimit="8" fill="#DAE3F3" fill-rule="evenodd"/><text font-family="DengXian,DengXian_MSFontService,sans-serif" font-weight="400" font-size="46" transform="matrix(1 0 0 1 312.853 1886)">One</text><text font-family="DengXian,DengXian_MSFontService,sans-serif" font-weight="400" font-size="46" transform="matrix(1 0 0 1 396.499 1886)">-</text><text font-family="DengXian,DengXian_MSFontService,sans-serif" font-weight="400" font-size="46" transform="matrix(1 0 0 1 419.416 1886)">Hot </text><text font-family="DengXian,DengXian_MSFontService,sans-serif" font-weight="400" font-size="46" transform="matrix(1 0 0 1 310.562 1941)">Encoding</text><path d="M828.5 1858.5C828.5 1847.45 837.454 1838.5 848.5 1838.5L1072.5 1838.5C1083.55 1838.5 1092.5 1847.45 1092.5 1858.5L1092.5 1938.5C1092.5 1949.55 1083.55 1958.5 1072.5 1958.5L848.5 1958.5C837.454 1958.5 828.5 1949.55 828.5 1938.5Z" stroke="#172C51" stroke-width="4.58333" stroke-miterlimit="8" fill="#DAE3F3" fill-rule="evenodd"/><text font-family="DengXian,DengXian_MSFontService,sans-serif" font-weight="400" font-size="46" transform="matrix(1 0 0 1 876.037 1886)">Distance </text><text font-family="DengXian,DengXian_MSFontService,sans-serif" font-weight="400" font-size="46" transform="matrix(1 0 0 1 868.016 1941)">Encoding</text><path d="M549.5 1858.5C549.5 1847.45 558.455 1838.5 569.501 1838.5L793.5 1838.5C804.546 1838.5 813.5 1847.45 813.5 1858.5L813.5 1938.5C813.5 1949.55 804.546 1958.5 793.5 1958.5L569.501 1958.5C558.455 1958.5 549.5 1949.55 549.5 1938.5Z" stroke="#172C51" stroke-width="4.58333" stroke-miterlimit="8" fill="#DAE3F3" fill-rule="evenodd"/><text font-family="DengXian,DengXian_MSFontService,sans-serif" font-weight="400" font-size="46" transform="matrix(1 0 0 1 605.033 1886)">Volume </text><text font-family="DengXian,DengXian_MSFontService,sans-serif" font-weight="400" font-size="46" transform="matrix(1 0 0 1 589.289 1941)">Encoding</text><path d="M3.43612-0.0973301 4.48128 36.8008-2.39096 36.9955-3.43612 0.0973301ZM14.6599 31.9273 1.69403 59.8056-12.8291 32.706Z" transform="matrix(-1 0 0 1 681.194 1779.5)"/><path d="M3.43612-0.0973301 4.48128 36.8008-2.39096 36.9955-3.43612 0.0973301ZM14.6599 31.9273 1.69403 59.8056-12.8291 32.706Z" transform="matrix(-1 0 0 1 964.194 1780.5)"/><path d="M3.43612-0.0973301 4.48128 36.8008-2.39096 36.9955-3.43612 0.0973301ZM14.6599 31.9273 1.69403 59.8056-12.8291 32.706Z" transform="matrix(-1 0 0 1 402.194 1780.5)"/><path d="M684.938 1958.5 684.938 2014.06 678.063 2014.06 678.063 1958.5ZM695.25 2009.48 681.501 2036.98 667.75 2009.48Z"/><path d="M963.848 1958.5 963.848 2001.35 681.5 2001.35 684.938 1997.91 684.938 2014.41 678.063 2014.41 678.063 1994.48 960.41 1994.48 956.973 1997.91 956.973 1958.5ZM695.25 2009.83 681.5 2037.33 667.75 2009.83Z"/><path d="M0-3.4375 42.6778-3.4375 42.6778 278.544 39.2403 275.107 55.5637 275.107 55.5637 281.982 35.8028 281.982 35.8028 0 39.2403 3.4375 0 3.4375ZM50.9804 264.794 78.4804 278.544 50.9804 292.294Z" transform="matrix(1.83697e-16 1 1 -1.83697e-16 402.5 1958.5)"/><path d="M1559.5 277.5 1970.5 277.5 1984.5 291.5 1984.5 361.5 1559.5 361.5Z" stroke="#172C51" stroke-width="4.58333" stroke-miterlimit="8" fill="#E2F0D9" fill-rule="evenodd"/><text font-family="DengXian,DengXian_MSFontService,sans-serif" font-weight="400" font-size="46" transform="matrix(1 0 0 1 1707.33 338)">Inputs</text><path d="M0-3.4375 335.868-3.4375 335.868 1759.6 332.43 1756.16 641.944 1756.16 641.944 1763.03 328.993 1763.03 328.993 0 332.43 3.4375 0 3.4375ZM637.361 1745.85 664.861 1759.6 637.361 1773.35Z" transform="matrix(1 0 0 -1 894.5 2079.1)"/><path d="M1378.5 468.334C1378.5 457.38 1387.38 448.5 1398.33 448.5L2144.67 448.5C2155.62 448.5 2164.5 457.38 2164.5 468.334L2164.5 547.666C2164.5 558.62 2155.62 567.5 2144.67 567.5L1398.33 567.5C1387.38 567.5 1378.5 558.62 1378.5 547.666Z" stroke="#172C51" stroke-width="4.58333" stroke-miterlimit="8" fill="#DAE3F3" fill-rule="evenodd"/><text font-family="DengXian,DengXian_MSFontService,sans-serif" font-weight="700" font-size="46" transform="matrix(1 0 0 1 1565.42 523)">Data Augmentation </text><path d="M1379.5 681.334C1379.5 670.38 1388.38 661.5 1399.33 661.5L2145.67 661.5C2156.62 661.5 2165.5 670.38 2165.5 681.334L2165.5 760.665C2165.5 771.619 2156.62 780.499 2145.67 780.499L1399.33 780.499C1388.38 780.499 1379.5 771.619 1379.5 760.665Z" stroke="#172C51" stroke-width="4.58333" stroke-miterlimit="8" fill="#FFF2CC" fill-rule="evenodd"/><text font-family="DengXian,DengXian_MSFontService,sans-serif" font-weight="700" font-size="46" transform="matrix(1 0 0 1 1646.6 736)">Conv Layers</text><path d="M1380.5 975.336C1380.5 906.391 1436.39 850.5 1505.34 850.5L2040.66 850.5C2109.61 850.5 2165.5 906.391 2165.5 975.336L2165.5 1474.66C2165.5 1543.61 2109.61 1599.5 2040.66 1599.5L1505.34 1599.5C1436.39 1599.5 1380.5 1543.61 1380.5 1474.66Z" stroke="#172C51" stroke-width="4.58333" stroke-miterlimit="8" fill="#FFF2CC" fill-rule="evenodd"/><path d="M1378.5 1687.5C1378.5 1676.45 1387.45 1667.5 1398.5 1667.5L2144.5 1667.5C2155.55 1667.5 2164.5 1676.45 2164.5 1687.5L2164.5 1767.5C2164.5 1778.55 2155.55 1787.5 2144.5 1787.5L1398.5 1787.5C1387.45 1787.5 1378.5 1778.55 1378.5 1767.5Z" stroke="#172C51" stroke-width="4.58333" stroke-miterlimit="8" fill="#FFF2CC" fill-rule="evenodd"/><text font-family="DengXian,DengXian_MSFontService,sans-serif" font-weight="700" font-size="46" transform="matrix(1 0 0 1 1635.03 1742)">Dense Layers</text><path d="M1558.5 1916.5 1950.33 1916.5 1984.5 1950.67 1984.5 2121.5 1558.5 2121.5Z" stroke="#172C51" stroke-width="4.58333" stroke-miterlimit="8" fill="#E2F0D9" fill-rule="evenodd"/><text font-family="DengXian,DengXian_MSFontService,sans-serif" font-weight="400" font-size="46" transform="matrix(1 0 0 1 1654.24 2015)">Predictions</text><text font-family="DengXian,DengXian_MSFontService,sans-serif" font-weight="400" font-size="46" transform="matrix(1 0 0 1 1599.81 2070)">[</text><text font-family="DengXian,DengXian_MSFontService,sans-serif" font-weight="400" font-size="46" transform="matrix(1 0 0 1 1625.59 2070)">PPI / Non</text><text font-family="DengXian,DengXian_MSFontService,sans-serif" font-weight="400" font-size="46" transform="matrix(1 0 0 1 1814.66 2070)">-</text><text font-family="DengXian,DengXian_MSFontService,sans-serif" font-weight="400" font-size="46" transform="matrix(1 0 0 1 1837.57 2070)">PPI ]</text><text font-family="DengXian,DengXian_MSFontService,sans-serif" font-weight="700" font-size="46" transform="matrix(1 0 0 1 1651.97 933)">Backbones</text><path d="M1417.5 1044.33C1417.5 1015.15 1441.15 991.5 1470.33 991.5L1681.67 991.5C1710.85 991.5 1734.5 1015.15 1734.5 1044.33L1734.5 1485.67C1734.5 1514.85 1710.85 1538.5 1681.67 1538.5L1470.33 1538.5C1441.15 1538.5 1417.5 1514.85 1417.5 1485.67Z" stroke="#172C51" stroke-width="3.4375" stroke-miterlimit="8" stroke-dasharray="13.75 10.3125" fill="none" fill-rule="evenodd"/><path d="M1810.5 1044.33C1810.5 1015.15 1834.15 991.5 1863.33 991.5L2074.67 991.5C2103.85 991.5 2127.5 1015.15 2127.5 1044.33L2127.5 1485.67C2127.5 1514.85 2103.85 1538.5 2074.67 1538.5L1863.33 1538.5C1834.15 1538.5 1810.5 1514.85 1810.5 1485.67Z" stroke="#172C51" stroke-width="3.4375" stroke-miterlimit="8" stroke-dasharray="13.75 10.3125" fill="none" fill-rule="evenodd"/><text font-family="DengXian,DengXian_MSFontService,sans-serif" font-weight="400" font-size="32" transform="matrix(1 0 0 1 1479.15 1038)">ResNet Blocks</text><text font-family="DengXian,DengXian_MSFontService,sans-serif" font-weight="400" font-size="32" transform="matrix(1 0 0 1 1851.01 1038)">DenseNet Blocks</text><path d="M1565.15 1063 1565.15 1501.39 1562.85 1501.39 1562.85 1063ZM1577.75 1496.8 1564 1524.3 1550.25 1496.8Z"/><rect x="1540.5" y="1107.25" width="50.25" height="50.25" fill="#4472C4"/><path d="M1590.75 1107.25 1607.5 1090.5 1607.5 1140.75 1590.75 1157.5Z" fill="#375C9E" fill-rule="evenodd"/><path d="M1540.5 1107.25 1557.25 1090.5 1607.5 1090.5 1590.75 1107.25Z" fill="#698ED0" fill-rule="evenodd"/><path d="M1540.5 1107.25 1557.25 1090.5 1607.5 1090.5 1607.5 1140.75 1590.75 1157.5 1540.5 1157.5ZM1540.5 1107.25 1590.75 1107.25 1607.5 1090.5M1590.75 1107.25 1590.75 1157.5" stroke="#172C51" stroke-width="4.58333" stroke-miterlimit="8" fill="none" fill-rule="evenodd"/><rect x="1540.5" y="1200" width="49.5" height="49.5" fill="#4472C4"/><path d="M1590 1200 1606.5 1183.5 1606.5 1233 1590 1249.5Z" fill="#375C9E" fill-rule="evenodd"/><path d="M1540.5 1200 1557 1183.5 1606.5 1183.5 1590 1200Z" fill="#698ED0" fill-rule="evenodd"/><path d="M1540.5 1200 1557 1183.5 1606.5 1183.5 1606.5 1233 1590 1249.5 1540.5 1249.5ZM1540.5 1200 1590 1200 1606.5 1183.5M1590 1200 1590 1249.5" stroke="#172C51" stroke-width="4.58333" stroke-miterlimit="8" fill="none" fill-rule="evenodd"/><rect x="1540.5" y="1286" width="49.5" height="49.5" fill="#4472C4"/><path d="M1590 1286 1606.5 1269.5 1606.5 1319 1590 1335.5Z" fill="#375C9E" fill-rule="evenodd"/><path d="M1540.5 1286 1557 1269.5 1606.5 1269.5 1590 1286Z" fill="#698ED0" fill-rule="evenodd"/><path d="M1540.5 1286 1557 1269.5 1606.5 1269.5 1606.5 1319 1590 1335.5 1540.5 1335.5ZM1540.5 1286 1590 1286 1606.5 1269.5M1590 1286 1590 1335.5" stroke="#172C51" stroke-width="4.58333" stroke-miterlimit="8" fill="none" fill-rule="evenodd"/><rect x="1540.5" y="1382" width="49.5" height="49.5" fill="#4472C4"/><path d="M1590 1382 1606.5 1365.5 1606.5 1415 1590 1431.5Z" fill="#375C9E" fill-rule="evenodd"/><path d="M1540.5 1382 1557 1365.5 1606.5 1365.5 1590 1382Z" fill="#698ED0" fill-rule="evenodd"/><path d="M1540.5 1382 1557 1365.5 1606.5 1365.5 1606.5 1415 1590 1431.5 1540.5 1431.5ZM1540.5 1382 1590 1382 1606.5 1365.5M1590 1382 1590 1431.5" stroke="#172C51" stroke-width="4.58333" stroke-miterlimit="8" fill="none" fill-rule="evenodd"/><path d="M1565.75 1071.14 1568.45 1073.48 1568.15 1073.29 1571.92 1074.9 1571.71 1074.83 1576.4 1075.82 1576.27 1075.8 1581.76 1076.32 1581.69 1076.31 1587.83 1076.48 1587.79 1076.48 1594.46 1076.44 1594.45 1076.44 1601.5 1076.33 1608.81 1076.28 1616.26 1076.42 1623.7 1076.89 1631.01 1077.83 1638.04 1079.37 1644.67 1081.67 1650.76 1084.88 1656.15 1089.13 1660.65 1094.53 1664.51 1101.01 1668.1 1108.41 1671.43 1116.66 1674.52 1125.66 1677.35 1135.34 1679.93 1145.58 1682.25 1156.31 1684.31 1167.44 1687.63 1190.48 1689.88 1213.97 1691.01 1237.16 1691.15 1248.42 1691 1259.32 1690.52 1270.32 1689.69 1281.87 1688.53 1293.84 1687.06 1306.14 1683.24 1331.21 1678.38 1356.17 1675.6 1368.34 1672.61 1380.13 1669.43 1391.45 1666.08 1402.16 1662.56 1412.18 1658.91 1421.37 1655.12 1429.63 1651.23 1436.85 1647.14 1443.1 1642.79 1448.56 1638.19 1453.29 1633.36 1457.32 1628.33 1460.72 1623.12 1463.52 1617.73 1465.79 1612.21 1467.57 1606.56 1468.92 1600.79 1469.9 1589.04 1470.94 1577.06 1471.14 1567.13 1470.95 1567.18 1468.66 1577.08 1468.85 1577.04 1468.85 1588.97 1468.65 1588.88 1468.66 1600.54 1467.62 1600.45 1467.63 1606.14 1466.67 1606.06 1466.68 1611.63 1465.35 1611.55 1465.37 1616.98 1463.62 1616.89 1463.66 1622.18 1461.43 1622.08 1461.48 1627.2 1458.73 1627.1 1458.79 1632.03 1455.46 1631.94 1455.53 1636.67 1451.57 1636.59 1451.65 1641.11 1447.01 1641.03 1447.09 1645.31 1441.71 1645.25 1441.8 1649.28 1435.63 1649.23 1435.72 1653.09 1428.57 1653.06 1428.64 1656.81 1420.44 1656.79 1420.49 1660.42 1411.35 1660.41 1411.39 1663.91 1401.42 1663.89 1401.46 1667.24 1390.78 1667.23 1390.81 1670.4 1379.53 1670.39 1379.56 1673.37 1367.79 1673.37 1367.82 1676.14 1355.68 1676.13 1355.72 1680.99 1330.79 1680.98 1330.84 1684.79 1305.81 1684.78 1305.85 1686.25 1293.58 1686.25 1293.61 1687.41 1281.66 1687.41 1281.69 1688.23 1270.17 1688.23 1270.21 1688.71 1259.24 1688.7 1259.27 1688.85 1248.4 1688.85 1248.43 1688.72 1237.21 1688.72 1237.25 1687.59 1214.11 1687.59 1214.16 1685.35 1190.73 1685.36 1190.78 1682.04 1167.79 1682.05 1167.84 1680 1156.75 1680 1156.78 1677.69 1146.09 1677.7 1146.12 1675.13 1135.92 1675.14 1135.96 1672.32 1126.33 1672.34 1126.38 1669.27 1117.43 1669.29 1117.49 1665.99 1109.31 1666.02 1109.38 1662.47 1102.06 1662.51 1102.14 1658.73 1095.78 1658.83 1095.93 1654.47 1090.69 1654.64 1090.85 1649.42 1086.74 1649.6 1086.86 1643.68 1083.74 1643.84 1083.81 1637.35 1081.56 1637.48 1081.6 1630.56 1080.07 1630.66 1080.09 1623.44 1079.16 1623.52 1079.17 1616.14 1078.71 1616.19 1078.71 1608.78 1078.57 1608.81 1078.57 1601.52 1078.62 1601.53 1078.62 1594.48 1078.74 1587.79 1078.77 1581.59 1078.6 1576 1078.08 1571.13 1077.05 1567.09 1075.33 1564.25 1072.87ZM1584.64 1482.57 1564.99 1469.77 1585.11 1457.71C1585.65 1457.38 1586.36 1457.56 1586.68 1458.1 1587.01 1458.65 1586.83 1459.35 1586.29 1459.68L1567.74 1470.79 1567.78 1468.85 1585.9 1480.65C1586.43 1480.99 1586.58 1481.7 1586.23 1482.23 1585.89 1482.76 1585.18 1482.91 1584.64 1482.57Z" fill="#172C51"/><path d="M1963.15 1063 1963.15 1501.39 1960.85 1501.39 1960.85 1063ZM1975.75 1496.8 1962 1524.3 1948.25 1496.8Z"/><rect x="1938.5" y="1107" width="49.5" height="49.5" fill="#4472C4"/><path d="M1988 1107 2004.5 1090.5 2004.5 1140 1988 1156.5Z" fill="#375C9E" fill-rule="evenodd"/><path d="M1938.5 1107 1955 1090.5 2004.5 1090.5 1988 1107Z" fill="#698ED0" fill-rule="evenodd"/><path d="M1938.5 1107 1955 1090.5 2004.5 1090.5 2004.5 1140 1988 1156.5 1938.5 1156.5ZM1938.5 1107 1988 1107 2004.5 1090.5M1988 1107 1988 1156.5" stroke="#172C51" stroke-width="4.58333" stroke-miterlimit="8" fill="none" fill-rule="evenodd"/><rect x="1937.5" y="1199" width="49.5" height="50.5" fill="#4472C4"/><path d="M1987 1199 2003.5 1182.5 2003.5 1233 1987 1249.5Z" fill="#375C9E" fill-rule="evenodd"/><path d="M1937.5 1199 1954 1182.5 2003.5 1182.5 1987 1199Z" fill="#698ED0" fill-rule="evenodd"/><path d="M1937.5 1199 1954 1182.5 2003.5 1182.5 2003.5 1233 1987 1249.5 1937.5 1249.5ZM1937.5 1199 1987 1199 2003.5 1182.5M1987 1199 1987 1249.5" stroke="#172C51" stroke-width="4.58333" stroke-miterlimit="8" fill="none" fill-rule="evenodd"/><rect x="1937.5" y="1286" width="49.5" height="49.5" fill="#4472C4"/><path d="M1987 1286 2003.5 1269.5 2003.5 1319 1987 1335.5Z" fill="#375C9E" fill-rule="evenodd"/><path d="M1937.5 1286 1954 1269.5 2003.5 1269.5 1987 1286Z" fill="#698ED0" fill-rule="evenodd"/><path d="M1937.5 1286 1954 1269.5 2003.5 1269.5 2003.5 1319 1987 1335.5 1937.5 1335.5ZM1937.5 1286 1987 1286 2003.5 1269.5M1987 1286 1987 1335.5" stroke="#172C51" stroke-width="4.58333" stroke-miterlimit="8" fill="none" fill-rule="evenodd"/><rect x="1937.5" y="1381" width="49.5" height="50.5" fill="#4472C4"/><path d="M1987 1381 2003.5 1364.5 2003.5 1415 1987 1431.5Z" fill="#375C9E" fill-rule="evenodd"/><path d="M1937.5 1381 1954 1364.5 2003.5 1364.5 1987 1381Z" fill="#698ED0" fill-rule="evenodd"/><path d="M1937.5 1381 1954 1364.5 2003.5 1364.5 2003.5 1415 1987 1431.5 1937.5 1431.5ZM1937.5 1381 1987 1381 2003.5 1364.5M1987 1381 1987 1431.5" stroke="#172C51" stroke-width="4.58333" stroke-miterlimit="8" fill="none" fill-rule="evenodd"/><path d="M1962.23 1070.88 1966.56 1071.76 1966.44 1071.74 1971.61 1072.23 1971.54 1072.23 1977.42 1072.43 1977.38 1072.43 1983.85 1072.45 1983.84 1072.45 1990.78 1072.37 1998.11 1072.29 2013.36 1072.53 2021.09 1073.06 2028.71 1073.98 2036.11 1075.4 2043.19 1077.42 2049.81 1080.16 2055.86 1083.72 2061.21 1088.2 2065.7 1093.68 2069.5 1100.18 2072.9 1107.61 2075.92 1115.91 2078.58 1124.97 2080.91 1134.7 2082.92 1145.02 2084.62 1155.82 2086.03 1167.03 2088.02 1190.21 2089 1213.83 2089.08 1237.13 2088.81 1248.42 2088.36 1259.35 2087.66 1270.36 2086.68 1281.92 2085.4 1293.91 2083.86 1306.2 2080.01 1331.27 2075.22 1356.22 2072.5 1368.38 2069.58 1380.16 2066.47 1391.47 2063.18 1402.18 2059.73 1412.18 2056.13 1421.37 2052.37 1429.63 2048.47 1436.85 2044.37 1443.1 2040.01 1448.56 2035.4 1453.29 2030.56 1457.32 2025.51 1460.72 2020.28 1463.52 2014.89 1465.79 2009.34 1467.57 2003.68 1468.92 1997.89 1469.9 1986.11 1470.94 1974.09 1471.14 1964.13 1470.95 1964.18 1468.66 1974.12 1468.85 1974.08 1468.85 1986.04 1468.65 1985.95 1468.66 1997.64 1467.62 1997.55 1467.63 2003.26 1466.67 2003.18 1466.68 2008.77 1465.35 2008.68 1465.37 2014.14 1463.62 2014.04 1463.66 2019.35 1461.43 2019.25 1461.48 2024.38 1458.73 2024.28 1458.78 2029.23 1455.46 2029.14 1455.53 2033.89 1451.57 2033.8 1451.65 2038.33 1447.01 2038.25 1447.09 2042.55 1441.71 2042.49 1441.8 2046.53 1435.63 2046.48 1435.72 2050.33 1428.57 2050.3 1428.64 2054.03 1420.45 2054 1420.5 2057.59 1411.37 2057.57 1411.41 2061.01 1401.45 2061 1401.49 2064.27 1390.81 2064.27 1390.84 2067.36 1379.57 2067.36 1379.6 2070.27 1367.84 2070.26 1367.87 2072.98 1355.74 2072.97 1355.77 2077.76 1330.86 2077.75 1330.9 2081.59 1305.87 2081.59 1305.9 2083.13 1293.63 2083.13 1293.65 2084.4 1281.69 2084.39 1281.72 2085.38 1270.18 2085.38 1270.21 2086.07 1259.21 2086.07 1259.24 2086.52 1248.34 2086.52 1248.36 2086.78 1237.09 2086.78 1237.12 2086.71 1213.86 2086.71 1213.91 2085.73 1190.33 2085.73 1190.38 2083.75 1167.24 2083.75 1167.29 2082.35 1156.13 2082.36 1156.16 2080.66 1145.4 2080.67 1145.44 2078.67 1135.17 2078.68 1135.21 2076.36 1125.53 2076.38 1125.59 2073.73 1116.59 2073.75 1116.66 2070.76 1108.44 2070.79 1108.52 2067.44 1101.18 2067.49 1101.29 2063.77 1094.91 2063.87 1095.06 2059.51 1089.73 2059.66 1089.89 2054.47 1085.54 2054.62 1085.65 2048.72 1082.18 2048.86 1082.25 2042.37 1079.57 2042.49 1079.61 2035.53 1077.62 2035.63 1077.64 2028.31 1076.23 2028.39 1076.25 2020.84 1075.33 2020.9 1075.34 2013.24 1074.82 2013.29 1074.82 1998.08 1074.58 1998.12 1074.58 1990.81 1074.66 1983.86 1074.74 1977.36 1074.73 1971.43 1074.52 1966.17 1074.02 1961.77 1073.12ZM1981.65 1482.56 1961.99 1469.77 1982.11 1457.71C1982.65 1457.38 1983.35 1457.56 1983.68 1458.1 1984.01 1458.65 1983.83 1459.35 1983.29 1459.67L1964.74 1470.79 1964.78 1468.85 1982.9 1480.64C1983.43 1480.99 1983.58 1481.7 1983.23 1482.23 1982.89 1482.76 1982.18 1482.91 1981.65 1482.56Z" fill="#172C51"/><path d="M1962.16 1072.87 1966.49 1073.48 1966.41 1073.47 1971.58 1073.81 1971.53 1073.81 1977.41 1073.95 1977.38 1073.95 1983.85 1073.96 1983.84 1073.96 1990.79 1073.9 1998.11 1073.85 2013.36 1074.02 2028.64 1075.02 2036.03 1076 2043.08 1077.4 2049.68 1079.29 2055.71 1081.75 2061.06 1084.85 2065.57 1088.68 2069.4 1093.22 2072.82 1098.42 2075.86 1104.21 2078.55 1110.53 2080.89 1117.31 2082.91 1124.51 2086.02 1139.8 2088.02 1155.92 2089 1172.34 2089.08 1188.53 2088.36 1203.95 2087.66 1211.62 2086.67 1219.66 2083.85 1236.52 2079.99 1253.94 2075.19 1271.27 2069.55 1287.9 2066.43 1295.76 2063.13 1303.21 2059.67 1310.17 2056.05 1316.56 2052.28 1322.32 2048.36 1327.35 2044.24 1331.71 2039.86 1335.51 2035.24 1338.79 2030.4 1341.59 2025.36 1343.94 2020.13 1345.88 2009.26 1348.67 1997.86 1350.28 1986.1 1351 1974.09 1351.14 1964.14 1351.01 1964.17 1348.72 1974.11 1348.85 1974.08 1348.85 1986.04 1348.71 1985.98 1348.72 1997.68 1348 1997.59 1348.01 2008.88 1346.41 2008.75 1346.44 2019.5 1343.68 2019.39 1343.72 2024.52 1341.81 2024.44 1341.84 2029.39 1339.54 2029.3 1339.58 2034.05 1336.84 2033.96 1336.89 2038.49 1333.67 2038.4 1333.74 2042.69 1330.01 2042.61 1330.09 2046.66 1325.82 2046.59 1325.9 2050.44 1320.95 2050.38 1321.02 2054.11 1315.34 2054.07 1315.4 2057.66 1309.07 2057.63 1309.12 2061.07 1302.21 2061.05 1302.26 2064.32 1294.86 2064.3 1294.9 2067.4 1287.08 2067.38 1287.13 2073.01 1270.57 2072.99 1270.63 2077.78 1253.35 2077.76 1253.41 2081.61 1236.06 2081.6 1236.11 2084.4 1219.31 2084.4 1219.36 2085.38 1211.36 2085.38 1211.4 2086.07 1203.77 2086.07 1203.82 2086.78 1188.45 2086.78 1188.51 2086.71 1172.38 2086.71 1172.44 2085.73 1156.09 2085.74 1156.17 2083.75 1140.12 2083.77 1140.21 2080.67 1125 2080.69 1125.08 2078.69 1117.96 2078.71 1118.03 2076.39 1111.31 2076.42 1111.38 2073.77 1105.15 2073.81 1105.23 2070.82 1099.53 2070.88 1099.63 2067.53 1094.54 2067.61 1094.65 2063.88 1090.23 2064.02 1090.36 2059.65 1086.67 2059.82 1086.78 2054.63 1083.77 2054.77 1083.84 2048.87 1081.43 2048.98 1081.47 2042.49 1079.61 2042.59 1079.64 2035.62 1078.25 2035.7 1078.27 2028.38 1077.29 2028.46 1077.3 2013.24 1076.31 2013.3 1076.31 1998.09 1076.14 1998.11 1076.14 1990.81 1076.19 1983.85 1076.25 1977.36 1076.24 1971.45 1076.1 1966.22 1075.75 1961.84 1075.13ZM1981.72 1362.52 1961.99 1349.84 1982.04 1337.67C1982.58 1337.34 1983.28 1337.51 1983.61 1338.05 1983.94 1338.59 1983.77 1339.3 1983.23 1339.62L1964.75 1350.85 1964.77 1348.9 1982.96 1360.6C1983.49 1360.94 1983.64 1361.65 1983.3 1362.18 1982.96 1362.71 1982.25 1362.87 1981.72 1362.52Z" fill="#172C51"/><path d="M1962.11 1070.86 1966.44 1071.27 1966.38 1071.26 1971.55 1071.49 1971.52 1071.49 1977.4 1071.58 1977.38 1071.58 1983.85 1071.59 1983.84 1071.59 1990.79 1071.55 1998.1 1071.52 2013.34 1071.63 2028.61 1072.29 2035.97 1072.95 2042.99 1073.88 2049.56 1075.13 2055.56 1076.76 2060.89 1078.82 2065.4 1081.37 2069.25 1084.42 2072.69 1087.91 2075.76 1091.8 2078.48 1096.07 2082.87 1105.44 2086.01 1115.71 2088.01 1126.53 2089 1137.53 2089.08 1148.37 2088.35 1158.72 2086.66 1169.23 2083.83 1180.52 2079.96 1192.17 2075.14 1203.77 2069.47 1214.9 2063.04 1225.13 2059.55 1229.8 2055.92 1234.08 2052.13 1237.94 2048.19 1241.31 2044.06 1244.22 2039.66 1246.77 2030.25 1250.8 2020.04 1253.65 2009.19 1255.5 1997.82 1256.57 1986.08 1257.05 1974.09 1257.14 1964.14 1257.06 1964.16 1254.77 1974.1 1254.85 1974.09 1254.85 1986.05 1254.76 1986.01 1254.76 1997.7 1254.28 1997.64 1254.29 2008.93 1253.22 2008.84 1253.24 2019.6 1251.4 2019.48 1251.42 2029.56 1248.61 2029.42 1248.66 2038.7 1244.69 2038.58 1244.75 2042.87 1242.26 2042.79 1242.32 2046.83 1239.47 2046.74 1239.53 2050.6 1236.23 2050.53 1236.3 2054.25 1232.51 2054.2 1232.57 2057.78 1228.35 2057.74 1228.4 2061.18 1223.8 2061.12 1223.87 2067.5 1213.72 2067.45 1213.81 2073.08 1202.77 2073.04 1202.85 2077.82 1191.33 2077.79 1191.41 2081.64 1179.84 2081.61 1179.92 2084.42 1168.72 2084.4 1168.82 2086.08 1158.4 2086.07 1158.5 2086.79 1148.26 2086.78 1148.34 2086.71 1137.59 2086.71 1137.69 2085.73 1126.79 2085.75 1126.89 2083.76 1116.2 2083.8 1116.32 2080.7 1106.18 2080.76 1106.34 2076.44 1097.11 2076.51 1097.24 2073.86 1093.08 2073.93 1093.17 2070.93 1089.38 2071.02 1089.47 2067.67 1086.08 2067.77 1086.17 2064.05 1083.23 2064.2 1083.32 2059.83 1080.86 2059.98 1080.93 2054.79 1078.92 2054.9 1078.96 2049 1077.35 2049.09 1077.37 2042.59 1076.13 2042.66 1076.15 2035.7 1075.22 2035.75 1075.23 2028.43 1074.58 2028.48 1074.58 2013.26 1073.92 2013.3 1073.92 1998.09 1073.81 1998.11 1073.81 1990.8 1073.84 1983.85 1073.88 1977.37 1073.88 1971.47 1073.78 1966.26 1073.55 1961.89 1073.14ZM1981.77 1268.49 1961.99 1255.89 1981.99 1243.63C1982.53 1243.3 1983.23 1243.47 1983.56 1244.01 1983.89 1244.55 1983.72 1245.26 1983.18 1245.59L1964.75 1256.89 1964.77 1254.94 1983 1266.56C1983.54 1266.9 1983.69 1267.61 1983.35 1268.14 1983.01 1268.68 1982.31 1268.83 1981.77 1268.49Z" fill="#172C51"/><path d="M1962.06 1070.86 1966.39 1071.07 1966.36 1071.07 1971.53 1071.19 1971.51 1071.19 1977.39 1071.24 1977.38 1071.24 1983.85 1071.25 1983.85 1071.25 1990.79 1071.23 1998.1 1071.21 2013.33 1071.27 2028.57 1071.62 2035.91 1071.97 2042.91 1072.46 2049.44 1073.13 2055.4 1073.99 2060.68 1075.08 2065.15 1076.42 2068.98 1078.03 2072.45 1079.91 2078.26 1084.27 2082.73 1089.36 2085.94 1094.95 2087.99 1100.84 2089 1106.83 2089.08 1112.72 2088.34 1118.36 2086.61 1124.07 2083.73 1130.18 2079.82 1136.45 2074.96 1142.68 2069.26 1148.64 2062.79 1154.13 2055.65 1158.91 2047.93 1162.75 2039.46 1165.64 2030.08 1167.78 2019.92 1169.29 2009.12 1170.27 1997.79 1170.84 1986.07 1171.1 1964.15 1171.09 1964.15 1168.8 1986.05 1168.8 1986.03 1168.8 1997.72 1168.55 1997.69 1168.55 2008.98 1167.99 2008.93 1167.99 2019.68 1167.01 2019.62 1167.02 2029.7 1165.52 2029.62 1165.54 2038.89 1163.42 2038.78 1163.45 2047.12 1160.61 2046.98 1160.67 2054.56 1156.89 2054.43 1156.96 2061.46 1152.26 2061.35 1152.34 2067.73 1146.93 2067.64 1147.02 2073.27 1141.13 2073.19 1141.22 2077.98 1135.09 2077.91 1135.19 2081.75 1129.02 2081.69 1129.14 2084.5 1123.17 2084.44 1123.33 2086.12 1117.78 2086.08 1117.97 2086.79 1112.51 2086.78 1112.67 2086.71 1106.95 2086.72 1107.12 2085.75 1101.31 2085.79 1101.5 2083.81 1095.81 2083.9 1096 2080.8 1090.6 2080.93 1090.79 2076.62 1085.87 2076.79 1086.03 2071.15 1081.79 2071.29 1081.88 2067.94 1080.08 2068.04 1080.12 2064.32 1078.56 2064.43 1078.6 2060.06 1077.29 2060.16 1077.31 2054.97 1076.24 2055.04 1076.25 2049.14 1075.4 2049.18 1075.4 2042.69 1074.74 2042.73 1074.75 2035.77 1074.25 2035.79 1074.26 2028.48 1073.91 2028.5 1073.91 2013.29 1073.56 2013.31 1073.56 1998.1 1073.5 1998.11 1073.5 1990.8 1073.52 1983.85 1073.54 1977.37 1073.53 1971.48 1073.48 1966.29 1073.36 1961.94 1073.14ZM1981.88 1182.38 1961.99 1169.94 1981.88 1157.52C1982.42 1157.18 1983.13 1157.35 1983.46 1157.88 1983.8 1158.42 1983.63 1159.13 1983.1 1159.46L1964.76 1170.92 1964.76 1168.97 1983.09 1180.44C1983.63 1180.77 1983.79 1181.48 1983.46 1182.01 1983.12 1182.55 1982.41 1182.71 1981.88 1182.38Z" fill="#172C51"/><path d="M1962.06 1167.86 1965.67 1168.05 1965.64 1168.05 1969.95 1168.16 1969.93 1168.16 1974.83 1168.21 1974.82 1168.21 1980.21 1168.21 1980.2 1168.21 1985.99 1168.19 1992.09 1168.17 2004.78 1168.23 2017.49 1168.55 2023.61 1168.87 2029.45 1169.31 2034.9 1169.92 2039.88 1170.7 2044.3 1171.7 2048.08 1172.94 2054.16 1176.1 2059.05 1180.1 2062.79 1184.74 2065.47 1189.83 2067.18 1195.19 2068.02 1200.63 2068.09 1205.99 2067.47 1211.1 2066.03 1216.3 2063.63 1221.85 2060.37 1227.55 2056.31 1233.22 2051.55 1238.65 2046.14 1243.64 2040.17 1248 2033.72 1251.5 2026.63 1254.13 2018.79 1256.08 2010.31 1257.46 2001.28 1258.35 1991.83 1258.87 1982.06 1259.1 1964.15 1259.09 1964.15 1256.8 1982.05 1256.81 1982.02 1256.81 1991.76 1256.58 1991.73 1256.58 2001.13 1256.07 2001.08 1256.07 2010.04 1255.18 2009.97 1255.19 2018.38 1253.83 2018.28 1253.85 2026.01 1251.93 2025.89 1251.96 2032.84 1249.38 2032.69 1249.45 2039.01 1246.02 2038.88 1246.1 2044.74 1241.83 2044.64 1241.91 2049.95 1237.01 2049.86 1237.09 2054.55 1231.75 2054.48 1231.84 2058.47 1226.27 2058.41 1226.36 2061.61 1220.77 2061.55 1220.88 2063.89 1215.46 2063.84 1215.61 2065.24 1210.57 2065.21 1210.74 2065.8 1205.79 2065.8 1205.94 2065.73 1200.74 2065.75 1200.9 2064.93 1195.62 2064.97 1195.8 2063.32 1190.63 2063.4 1190.81 2060.81 1185.91 2060.94 1186.09 2057.34 1181.63 2057.5 1181.8 2052.8 1177.95 2053 1178.08 2047.1 1175.01 2047.28 1175.08 2043.64 1173.89 2043.74 1173.92 2039.42 1172.95 2039.49 1172.96 2034.57 1172.19 2034.62 1172.19 2029.21 1171.59 2029.25 1171.6 2023.45 1171.15 2023.48 1171.15 2017.38 1170.84 2017.41 1170.84 2004.73 1170.52 2004.76 1170.52 1992.08 1170.47 1992.09 1170.47 1986 1170.48 1980.21 1170.5 1974.81 1170.5 1969.9 1170.45 1965.57 1170.34 1961.94 1170.14ZM1981.88 1270.38 1961.99 1257.95 1981.88 1245.52C1982.42 1245.19 1983.13 1245.35 1983.46 1245.89 1983.8 1246.43 1983.64 1247.13 1983.1 1247.47L1964.76 1258.92 1964.76 1256.98 1983.09 1268.44C1983.63 1268.78 1983.79 1269.48 1983.46 1270.02 1983.12 1270.56 1982.41 1270.72 1981.88 1270.38Z"/><path d="M1960.13 1167.86 1963.71 1168.27 1963.64 1168.26 1967.9 1168.49 1967.86 1168.49 1972.71 1168.58 1972.69 1168.58 1978.04 1168.59 1978.03 1168.59 1983.76 1168.55 1989.8 1168.51 2002.39 1168.63 2015.01 1169.29 2021.1 1169.94 2026.92 1170.87 2032.36 1172.12 2037.35 1173.75 2041.78 1175.82 2045.54 1178.38 2048.73 1181.42 2051.58 1184.9 2054.12 1188.77 2056.36 1193.01 2059.97 1202.32 2062.56 1212.52 2064.21 1223.26 2065.02 1234.18 2065.09 1244.95 2064.49 1255.22 2063.1 1265.66 2060.76 1276.88 2057.57 1288.46 2053.59 1299.99 2048.92 1311.05 2043.61 1321.22 2040.74 1325.87 2037.73 1330.13 2034.6 1333.97 2031.35 1337.32 2027.92 1340.23 2024.27 1342.78 2016.47 1346.81 2008 1349.65 1999 1351.51 1989.6 1352.57 1979.89 1353.05 1969.98 1353.14 1962.14 1353.06 1962.17 1350.77 1969.99 1350.85 1969.97 1350.85 1979.84 1350.76 1979.8 1350.76 1989.45 1350.29 1989.38 1350.29 1998.69 1349.24 1998.59 1349.25 2007.47 1347.42 2007.33 1347.46 2015.66 1344.66 2015.5 1344.73 2023.15 1340.78 2023.02 1340.86 2026.57 1338.38 2026.48 1338.45 2029.82 1335.61 2029.74 1335.69 2032.92 1332.41 2032.86 1332.48 2035.93 1328.71 2035.88 1328.77 2038.84 1324.57 2038.81 1324.63 2041.64 1320.05 2041.6 1320.12 2046.86 1310.03 2046.82 1310.11 2051.47 1299.13 2051.44 1299.2 2055.39 1287.75 2055.37 1287.82 2058.54 1276.31 2058.52 1276.38 2060.84 1265.24 2060.83 1265.32 2062.21 1254.96 2062.21 1255.05 2062.8 1244.85 2062.8 1244.93 2062.73 1234.23 2062.74 1234.31 2061.93 1223.47 2061.94 1223.56 2060.3 1212.92 2060.32 1213.03 2057.77 1202.95 2057.81 1203.08 2054.25 1193.91 2054.3 1194.03 2052.11 1189.89 2052.17 1189.98 2049.7 1186.2 2049.77 1186.3 2047 1182.93 2047.1 1183.03 2044.03 1180.1 2044.17 1180.22 2040.57 1177.77 2040.73 1177.86 2036.44 1175.86 2036.57 1175.91 2031.7 1174.31 2031.8 1174.34 2026.44 1173.11 2026.52 1173.12 2020.77 1172.21 2020.83 1172.22 2014.79 1171.57 2014.85 1171.57 2002.29 1170.92 2002.34 1170.92 1989.79 1170.8 1989.81 1170.8 1983.78 1170.84 1978.04 1170.88 1972.68 1170.87 1967.8 1170.78 1963.48 1170.55 1959.87 1170.14ZM1979.75 1364.53 1959.99 1351.89 1980.01 1339.67C1980.55 1339.34 1981.25 1339.51 1981.58 1340.05 1981.91 1340.59 1981.74 1341.3 1981.2 1341.63L1962.75 1352.89 1962.77 1350.95 1980.98 1362.6C1981.52 1362.94 1981.67 1363.65 1981.33 1364.18 1980.99 1364.71 1980.28 1364.87 1979.75 1364.53Z"/><path d="M1960.21 1167.87 1963.79 1168.54 1963.68 1168.53 1967.94 1168.9 1967.88 1168.89 1972.73 1169.05 1972.69 1169.05 1978.04 1169.06 1978.02 1169.06 1983.76 1169 1989.8 1168.94 2002.41 1169.12 2015.06 1170.21 2021.2 1171.29 2027.05 1172.83 2032.53 1174.91 2037.55 1177.61 2042 1181.02 2045.73 1185.2 2048.89 1190.15 2051.7 1195.8 2054.21 1202.09 2056.41 1208.96 2058.34 1216.34 2060 1224.17 2062.57 1240.82 2064.22 1258.38 2065.02 1276.26 2065.09 1293.89 2064.49 1310.7 2063.92 1319.05 2063.1 1327.8 2060.78 1346.17 2057.6 1365.15 2053.64 1384.04 2048.98 1402.15 2046.41 1410.71 2043.7 1418.82 2040.84 1426.4 2037.86 1433.36 2034.75 1439.63 2031.52 1445.11 2028.12 1449.86 2024.51 1454.01 2020.68 1457.6 2016.67 1460.67 2012.49 1463.24 2008.16 1465.37 2003.69 1467.09 1999.09 1468.44 1989.66 1470.2 1979.91 1470.99 1969.98 1471.14 1962.13 1471.01 1962.17 1468.71 1970 1468.85 1969.97 1468.85 1979.84 1468.7 1979.76 1468.7 1989.41 1467.92 1989.29 1467.94 1998.61 1466.2 1998.5 1466.23 2003 1464.9 2002.91 1464.93 2007.29 1463.25 2007.19 1463.29 2011.43 1461.21 2011.33 1461.26 2015.42 1458.74 2015.33 1458.81 2019.24 1455.81 2019.16 1455.89 2022.89 1452.38 2022.82 1452.46 2026.36 1448.39 2026.29 1448.48 2029.63 1443.82 2029.58 1443.9 2032.76 1438.5 2032.72 1438.57 2035.79 1432.37 2035.77 1432.43 2038.73 1425.52 2038.71 1425.57 2041.55 1418.04 2041.53 1418.08 2044.23 1410 2044.22 1410.04 2046.78 1401.51 2046.77 1401.55 2051.41 1383.49 2051.4 1383.54 2055.35 1364.7 2055.34 1364.74 2058.52 1345.82 2058.51 1345.86 2060.83 1327.53 2060.82 1327.57 2061.64 1318.85 2061.64 1318.88 2062.21 1310.56 2062.2 1310.6 2062.8 1293.83 2062.8 1293.88 2062.73 1276.29 2062.73 1276.34 2061.93 1258.51 2061.93 1258.56 2060.29 1241.06 2060.3 1241.13 2057.74 1224.55 2057.76 1224.61 2056.11 1216.84 2056.12 1216.9 2054.21 1209.57 2054.22 1209.63 2052.04 1202.83 2052.06 1202.9 2049.59 1196.69 2049.63 1196.77 2046.86 1191.22 2046.92 1191.33 2043.85 1186.51 2043.96 1186.66 2040.36 1182.63 2040.52 1182.77 2036.23 1179.48 2036.39 1179.58 2031.51 1176.96 2031.65 1177.02 2026.29 1174.99 2026.41 1175.03 2020.66 1173.52 2020.75 1173.54 2014.72 1172.48 2014.82 1172.49 2002.25 1171.41 2002.34 1171.41 1989.78 1171.23 1989.81 1171.23 1983.78 1171.29 1978.04 1171.35 1972.67 1171.34 1967.77 1171.18 1963.42 1170.8 1959.79 1170.13ZM1979.67 1482.59 1959.99 1469.82 1980.09 1457.73C1980.63 1457.41 1981.34 1457.58 1981.66 1458.13 1981.99 1458.67 1981.81 1459.37 1981.27 1459.7L1962.74 1470.84 1962.78 1468.9 1980.91 1480.67C1981.44 1481.01 1981.59 1481.72 1981.25 1482.25 1980.91 1482.78 1980.2 1482.94 1979.67 1482.59Z"/><path d="M1963.09 1255.86 1965.64 1256.06 1965.59 1256.05 1968.62 1256.17 1968.59 1256.17 1972.05 1256.21 1972.03 1256.21 1975.83 1256.21 1975.83 1256.21 1984.2 1256.18 1993.16 1256.23 2002.15 1256.56 2010.6 1257.33 2014.49 1257.95 2018.04 1258.76 2021.21 1259.78 2023.94 1261.06 2028.29 1264.31 2031.76 1268.39 2034.4 1273.08 2036.28 1278.19 2037.47 1283.56 2038.06 1289.01 2038.1 1294.38 2037.67 1299.51 2036.67 1304.72 2034.99 1310.3 2032.69 1316.05 2029.84 1321.77 2026.48 1327.27 2022.66 1332.33 2018.43 1336.75 2013.83 1340.34 2008.77 1343.03 2003.18 1345.03 1997.15 1346.43 1990.75 1347.34 1984.06 1347.86 1977.15 1348.1 1965.15 1348.09 1965.15 1345.8 1977.13 1345.81 1977.09 1345.81 1983.95 1345.57 1983.9 1345.58 1990.53 1345.06 1990.46 1345.07 1996.78 1344.17 1996.68 1344.19 2002.6 1342.81 2002.48 1342.85 2007.93 1340.9 2007.77 1340.97 2012.67 1338.36 2012.5 1338.47 2016.96 1335 2016.83 1335.11 2020.96 1330.79 2020.87 1330.89 2024.62 1325.93 2024.55 1326.02 2027.86 1320.62 2027.81 1320.71 2030.62 1315.07 2030.58 1315.16 2032.84 1309.5 2032.81 1309.59 2034.45 1304.11 2034.43 1304.23 2035.41 1299.13 2035.4 1299.26 2035.82 1294.24 2035.81 1294.35 2035.77 1289.09 2035.77 1289.2 2035.2 1283.87 2035.22 1284 2034.06 1278.76 2034.1 1278.91 2032.28 1273.95 2032.36 1274.12 2029.82 1269.61 2029.95 1269.79 2026.63 1265.89 2026.82 1266.07 2022.67 1262.97 2022.86 1263.09 2020.3 1261.88 2020.44 1261.94 2017.39 1260.95 2017.48 1260.98 2014.02 1260.2 2014.09 1260.21 2010.28 1259.6 2010.35 1259.61 2001.97 1258.84 2002.03 1258.85 1993.09 1258.52 1993.13 1258.53 1984.2 1258.47 1984.21 1258.47 1975.83 1258.51 1972.02 1258.5 1968.55 1258.46 1965.48 1258.34 1962.91 1258.14ZM1982.87 1359.39 1962.99 1346.95 1982.89 1334.53C1983.42 1334.19 1984.13 1334.36 1984.47 1334.89 1984.8 1335.43 1984.64 1336.14 1984.1 1336.47L1965.76 1347.92 1965.76 1345.98 1984.09 1357.44C1984.63 1357.78 1984.79 1358.49 1984.45 1359.02 1984.12 1359.56 1983.41 1359.72 1982.87 1359.39Z"/><path d="M1963.21 1254.87 1965.79 1255.35 1965.68 1255.34 1968.75 1255.6 1968.69 1255.6 1972.19 1255.71 1972.16 1255.71 1976.01 1255.72 1975.99 1255.72 1984.49 1255.63 1993.6 1255.77 2002.77 1256.55 2011.43 1258.43 2015.44 1259.94 2019.1 1261.9 2022.35 1264.38 2025.08 1267.43 2027.38 1271.01 2029.42 1275.09 2031.24 1279.64 2032.84 1284.6 2035.43 1295.52 2037.29 1307.5 2038.47 1320.11 2039.06 1332.96 2039.1 1345.63 2038.68 1357.71 2037.67 1369.99 2035.99 1383.19 2033.7 1396.82 2030.84 1410.39 2027.48 1423.4 2025.62 1429.55 2023.66 1435.39 2021.6 1440.84 2019.44 1445.85 2017.19 1450.36 2014.85 1454.32 2012.38 1457.75 2009.75 1460.75 2006.97 1463.35 2004.03 1465.59 1997.86 1468.98 1991.29 1471.19 1984.43 1472.47 1977.37 1473.04 1970.2 1473.14 1965.13 1473.06 1965.17 1470.76 1970.22 1470.85 1970.18 1470.85 1977.3 1470.74 1977.23 1470.75 1984.19 1470.19 1984.07 1470.2 1990.79 1468.95 1990.63 1469 1997.03 1466.84 1996.85 1466.92 2002.85 1463.62 2002.71 1463.71 2005.53 1461.56 2005.44 1461.64 2008.14 1459.12 2008.06 1459.2 2010.62 1456.28 2010.55 1456.37 2012.96 1453.02 2012.9 1453.11 2015.19 1449.23 2015.16 1449.3 2017.37 1444.85 2017.35 1444.91 2019.48 1439.95 2019.46 1440 2021.51 1434.59 2021.49 1434.63 2023.44 1428.84 2023.43 1428.88 2025.28 1422.76 2025.27 1422.8 2028.62 1409.84 2028.6 1409.89 2031.45 1396.37 2031.44 1396.41 2033.73 1382.83 2033.72 1382.88 2035.4 1369.72 2035.39 1369.78 2036.39 1357.55 2036.39 1357.6 2036.81 1345.57 2036.81 1345.62 2036.77 1332.99 2036.77 1333.04 2036.19 1320.25 2036.19 1320.3 2035.01 1307.74 2035.02 1307.81 2033.17 1295.91 2033.19 1296 2030.62 1285.17 2030.65 1285.26 2029.07 1280.38 2029.1 1280.45 2027.31 1275.99 2027.35 1276.08 2025.36 1272.09 2025.42 1272.2 2023.2 1268.74 2023.31 1268.89 2020.72 1266 2020.87 1266.14 2017.78 1263.78 2017.94 1263.88 2014.42 1262 2014.56 1262.06 2010.7 1260.6 2010.86 1260.65 2002.36 1258.81 2002.5 1258.83 1993.45 1258.05 1993.53 1258.06 1984.47 1257.92 1984.5 1257.92 1976.01 1258.01 1972.13 1258 1968.59 1257.89 1965.43 1257.62 1962.79 1257.13ZM1982.67 1484.64 1962.99 1471.87 1983.09 1459.78C1983.63 1459.46 1984.33 1459.63 1984.66 1460.17 1984.99 1460.72 1984.81 1461.42 1984.27 1461.75L1965.74 1472.89 1965.78 1470.95 1983.91 1482.72C1984.44 1483.06 1984.6 1483.77 1984.25 1484.3 1983.91 1484.83 1983.2 1484.98 1982.67 1484.64Z"/><path d="M1963.14 1350.86 1965.31 1351.13 1965.23 1351.12 1967.82 1351.27 1967.76 1351.27 1973.94 1351.33 1973.92 1351.33 1981.05 1351.29 1988.69 1351.36 1996.38 1351.8 2003.65 1352.84 2010.03 1354.75 2012.8 1356.15 2015.17 1357.89 2018.87 1362.22 2021.79 1367.59 2024 1373.75 2025.57 1380.48 2026.58 1387.54 2027.07 1394.73 2027.11 1401.81 2026.75 1408.57 2025.9 1415.44 2024.48 1422.82 2022.54 1430.43 2020.13 1438.01 2017.29 1445.28 2014.06 1451.99 2010.47 1457.87 2006.56 1462.64 2002.23 1466.26 1997.41 1468.95 1992.22 1470.84 1986.71 1472.06 1980.97 1472.77 1975.06 1473.08 1965.15 1473.08 1965.16 1470.79 1975.03 1470.79 1974.97 1470.79 1980.81 1470.48 1980.73 1470.49 1986.38 1469.8 1986.27 1469.82 1991.64 1468.62 1991.5 1468.66 1996.54 1466.82 1996.38 1466.9 2001.02 1464.31 2000.84 1464.43 2005.01 1460.95 2004.86 1461.1 2008.65 1456.48 2008.56 1456.61 2012.07 1450.85 2012.02 1450.95 2015.2 1444.33 2015.17 1444.41 2017.98 1437.21 2017.96 1437.28 2020.35 1429.77 2020.33 1429.83 2022.25 1422.28 2022.24 1422.35 2023.64 1415.04 2023.63 1415.12 2024.47 1408.33 2024.46 1408.41 2024.82 1401.72 2024.82 1401.79 2024.78 1394.78 2024.78 1394.85 2024.29 1387.74 2024.3 1387.82 2023.31 1380.85 2023.33 1380.95 2021.78 1374.34 2021.82 1374.46 2019.66 1368.45 2019.73 1368.61 2016.91 1363.42 2017.05 1363.61 2013.51 1359.48 2013.7 1359.66 2011.52 1358.05 2011.68 1358.15 2009.08 1356.84 2009.27 1356.91 2003.08 1355.06 2003.24 1355.1 1996.1 1354.07 1996.2 1354.08 1988.59 1353.65 1988.65 1353.65 1981.04 1353.58 1981.06 1353.58 1973.92 1353.63 1967.71 1353.56 1965.06 1353.41 1962.86 1353.14ZM1982.87 1484.37 1962.99 1471.93 1982.89 1459.51C1983.43 1459.18 1984.13 1459.34 1984.47 1459.88 1984.8 1460.42 1984.64 1461.12 1984.1 1461.46L1965.76 1472.9 1965.76 1470.96 1984.09 1482.43C1984.62 1482.77 1984.79 1483.48 1984.45 1484.01 1984.11 1484.55 1983.41 1484.71 1982.87 1484.37Z"/><path d="M3.43746-0.0174222 3.76304 64.2214-3.11187 64.2562-3.43746 0.0174222ZM14.0522 59.5858 0.441732 87.1552-13.4475 59.7252Z" transform="matrix(-1 0 0 1 1771.94 361.5)"/><path d="M1775.94 570.491 1776.12 638.483 1769.24 638.501 1769.06 570.509ZM1786.42 633.872 1772.74 661.409 1758.92 633.946Z"/><path d="M1775.94 780.467 1776.38 827.16 1769.51 827.226 1769.06 780.533ZM1786.65 822.479 1773.16 850.109 1759.15 822.741Z"/><path d="M3.43683-0.0680338 4.3312 45.1126-2.54245 45.2487-3.43683 0.0680338ZM14.551 40.3261 1.34793 68.0928-12.9436 40.8703Z" transform="matrix(-1 0 0 1 1772.85 1599.5)"/><path d="M1774.94 1787.5 1774.94 1893.55 1768.06 1893.55 1768.06 1787.5ZM1785.25 1888.97 1771.5 1916.47 1757.75 1888.97Z"/><path d="M1324.5 682.793C1324.5 639.553 1359.55 604.5 1402.79 604.5L2142.21 604.5C2185.45 604.5 2220.5 639.553 2220.5 682.793L2220.5 1765.21C2220.5 1808.45 2185.45 1843.5 2142.21 1843.5L1402.79 1843.5C1359.55 1843.5 1324.5 1808.45 1324.5 1765.21Z" stroke="#172C51" stroke-width="4.58333" stroke-linecap="square" stroke-miterlimit="8" stroke-dasharray="13.75 4.58333" fill="none" fill-rule="evenodd"/><text font-family="DengXian,DengXian_MSFontService,sans-serif" font-weight="700" font-size="55" transform="matrix(6.12323e-17 1 -1 6.12323e-17 2250.37 947)">Neural Network</text></g></svg>